<?xml version="1.0" standalone="no"?>
<!DOCTYPE svg PUBLIC "-//W3C//DTD SVG 1.1//EN" "http://www.w3.org/Graphics/SVG/1.1/DTD/svg11.dtd" >
<svg xmlns="http://www.w3.org/2000/svg" xmlns:xlink="http://www.w3.org/1999/xlink" version="1.1">
<metadata>
Created by FontForge 20150102 at Sun Mar  8 08:03:18 2015
 By uniteet7
Created by Youssef Habchi http://youssef-habchi.com. Free for personnal and commercial use. 2014
</metadata>
<defs>
<font id="Kirvy-Regular" horiz-adv-x="796" >
  <font-face 
    font-family="Kirvy"
    font-weight="400"
    font-stretch="normal"
    units-per-em="1000"
    panose-1="0 0 5 3 0 0 0 0 0 0"
    ascent="800"
    descent="-200"
    x-height="588.73"
    cap-height="794"
    bbox="0 -218.471 1017.98 990.002"
    underline-thickness="50"
    underline-position="-100"
    stemh="70"
    stemv="70"
    unicode-range="U+0020-20AC"
  />
<missing-glyph horiz-adv-x="500" 
d="M50 0v533h400v-533h-400zM100 50h300v433h-300v-433z" />
    <glyph glyph-name=".notdef" horiz-adv-x="500" 
d="M50 0v533h400v-533h-400zM100 50h300v433h-300v-433z" />
    <glyph glyph-name="space" unicode=" " horiz-adv-x="294" 
 />
    <glyph glyph-name="exclam" unicode="!" horiz-adv-x="214" 
d="M211.47 303.33v490.67h70.0732v-490.67h-70.0732zM246.897 108.659c33.1826 0 56.1162 -25.6484 56.1152 -59.2432c0 -32.7041 -22.1055 -59.2412 -56.8975 -59.2412c-33.3271 0 -56.1162 26.4639 -56.1162 59.2412c0 33.8223 23.8711 59.2432 56.8984 59.2432z" />
    <glyph glyph-name="quotedbl" unicode="&#x22;" horiz-adv-x="286" 
d="M60 613v181h70v-181h-70zM142.49 613v181h70v-181h-70z" />
    <glyph glyph-name="numbersign" unicode="#" horiz-adv-x="714" 
d="M646.956 794l-83.041 -249.829h79.1777v-68.9863h-102.066l-48.0488 -144.879h81.8857v-68.9854h-104.765l-89.916 -271.125l-73.2266 -0.217773l90.4395 271.344h-199.683l-89.9941 -271.303h-72.5674l89.8848 271.303h-72.0312v68.9854h94.9062l48.0479 144.879
h-74.7256v68.9863h97.6055l82.8701 249.828h72.5615l-82.7568 -249.828h199.71l82.8369 249.828h72.8955zM420.297 330.307l48.0459 144.879h-199.705l-48.0469 -144.879h199.706z" />
    <glyph glyph-name="dollar" unicode="$" horiz-adv-x="576" 
d="M487.731 319.296c14.126 -24.6963 21.1445 -53.6133 21.1436 -85.5273c0 -28.6016 -4.86426 -55.8174 -14.5469 -80.792c-10.0977 -26.043 -25.207 -49.0371 -44.8467 -68.1709c-34.585 -33.6934 -81.9375 -53.6279 -136.636 -59.5859v-35.2002h-70v34.4424
c-43.5889 2.75195 -78.9307 11.0293 -108.892 25.8164c-40.6689 20.0723 -64.8037 49.793 -80.8115 72.6641l-20.0703 28.6729l57.3477 40.1406l20.0703 -28.6729c23.3613 -33.373 49.21 -61.7441 132.357 -68.4072v277.152
c-41.7695 12.1436 -80.7744 25.2129 -114.532 47.585c-24.0752 15.9541 -42.3389 34.835 -55.1992 57.458c-14.2383 25.0498 -21.3105 54.3887 -21.3105 86.7881c0 54.9111 18.3789 101.969 53.7979 134.82c33.2168 30.8096 81.2207 48.3701 137.244 53.1191v42.4004h70
v-43.9023c58.543 -9.88184 111.308 -44.3564 148.386 -97.3252l20.0713 -28.6729l-57.3486 -40.1396l-20.0713 28.6738c-23.9746 34.2539 -56.958 57.0283 -91.0371 65.917v-253.724c43.5371 -12.4404 84.9336 -25.6758 120.18 -48.917
c23.8477 -15.7236 41.9531 -34.3223 54.7041 -56.6133zM166.755 477.913c20.0957 -13.3174 48.4854 -24.3223 76.0918 -32.9873v236.418c-83.9385 -8.93359 -121.043 -47.4004 -121.043 -117.686c0 -39.6094 13.1543 -64.6719 44.9512 -85.7451zM312.848 95.7979
c80.5283 11.6768 126.029 61.5938 126.029 137.974c0 38.5391 -13.0996 63.0752 -44.3828 83.7002c-21.6533 14.2783 -50.7139 25.0381 -81.6465 34.4229v-256.097z" />
    <glyph glyph-name="percent" unicode="%" horiz-adv-x="657" 
d="M503.201 794.007l77.9834 -0.00878906l-464.208 -803.979h-78.0957zM176.734 497.797c-75.8281 0 -136.736 64.6025 -136.735 143.104c0 78.502 60.9053 143.104 136.735 143.104c75.8291 0 136.737 -64.6006 136.737 -143.104
c0 -78.502 -60.9053 -143.104 -136.737 -143.104zM176.734 716.41c-37.4502 0 -69.1406 -33.2217 -69.1406 -75.5098c0 -42.2842 31.6914 -75.5078 69.1406 -75.5078c37.4531 0 69.1436 33.2236 69.1436 75.5078c0 42.2861 -31.6924 75.5098 -69.1436 75.5098z
M449.891 276.529c75.8291 0 136.737 -64.6045 136.737 -143.104c0 -78.501 -60.9062 -143.104 -136.737 -143.104c-75.8281 0 -136.736 64.6035 -136.736 143.104s60.9062 143.104 136.736 143.104zM449.891 57.917c37.4521 0 69.1426 33.2217 69.1426 75.5088
c0 42.2861 -31.6924 75.5088 -69.1426 75.5088s-69.1406 -33.2236 -69.1406 -75.5088c0 -42.2861 31.6914 -75.5088 69.1406 -75.5088z" />
    <glyph glyph-name="ampersand" unicode="&#x26;" horiz-adv-x="696" 
d="M606.958 -37.5703c-52.7812 16.3652 -107.076 61.4355 -146.105 98.7373c-54.7217 -47.2549 -122.133 -71.1914 -199.412 -71.1914c-61.001 0 -115.161 16.0449 -156.196 47.126c-39.5605 29.9648 -64.832 71.8389 -72.6846 120.524
c-10.0723 62.459 9.79785 128.599 54.7441 186.19c28.0732 35.9707 65.8115 67.9131 109.382 93.8643c-5.70898 12.6934 -10.6465 24.3535 -15.4004 36.3516c-30.8848 77.9502 -43.1709 143.987 -35.1768 196.758c5.73926 37.875 22.1689 68.6006 48.999 89.9209
c27.8643 22.1377 65.46 32.8154 110.691 32.8154c48.6543 0 91.7578 -13.6738 124.049 -40.2598c30.0273 -24.7217 49.3223 -59.042 55.7109 -98.6777c7.42969 -46.0713 -3.24902 -94.499 -29.6973 -136.425c-28.6162 -45.3633 -72.7969 -78.8398 -127.228 -96.8652
c-13.6133 -4.50781 -26.7959 -9.46191 -39.3633 -14.6992c19.4863 -36.4121 41.2393 -72.4053 66.5225 -109.875c33.1367 -49.1074 69.0781 -95.2383 103.106 -133.479c45.7422 68.1846 69.9033 166.09 69.9033 286.344v10h69.4082v-10
c0 -67.4668 -7.10938 -129.703 -21.248 -185.039c-14.2822 -55.9072 -35.7383 -104.771 -63.9688 -145.138c-1.60938 -2.2998 -4.12988 -5.78125 -5.18457 -7.21289c47.2793 -45.3545 88.1143 -73.6846 119.699 -83.4775l9.55078 -2.96094l-20.5508 -66.2939z
M227.431 375.204c-35.0283 -21.4346 -63.8027 -46.4014 -85.4092 -74.0869c-33.7266 -43.2158 -47.7363 -90.2822 -40.9385 -132.44c10.7178 -66.4609 70.0957 -109.291 160.356 -109.291c60.3174 0 111.271 18.21 151.103 51.6621
c-39.6191 43.8096 -78.1709 93.3369 -114.287 146.856c-26.2979 38.9756 -51.0986 80.2568 -70.8242 117.3zM305.8 724.121c-75.6631 0 -86.8291 -35.7725 -91.0635 -63.7275c-6.68848 -44.1523 9.4834 -114.093 43.8994 -191.4
c15.5645 6.65332 31.5107 12.6768 48.1816 18.1963c85.3906 28.2754 119.184 100.774 110.222 156.351c-8.08008 50.1084 -47.8223 80.5811 -111.239 80.5811z" />
    <glyph glyph-name="quotesingle" unicode="'" horiz-adv-x="248" 
d="M87 792.239l69.999 -0.000976562v-33.6699c0.000976562 -93.5088 -48.2803 -148.313 -51.1172 -151.457l-6.7002 -7.42383l-51.8652 46.8105l6.40039 7.29004c0.572266 0.652344 33.2842 38.3057 33.2832 104.781v33.6699z" />
    <glyph glyph-name="parenleft" unicode="(" horiz-adv-x="370" 
d="M299.208 -138.532c-71.4678 0 -134.608 53.876 -179.294 145.851c-42.0762 86.6045 -64.915 200.189 -64.915 320.415s22.8379 233.81 64.915 320.416c44.6855 91.9746 107.825 145.851 179.292 145.851h10v-68.7451h-10c-19.3389 0 -39.0898 -8.06641 -59.1074 -25.4941
c-20.7871 -18.0928 -41.2061 -46.3623 -58.3506 -81.6533c-37.1748 -76.5137 -58.0039 -179.851 -58.0039 -290.374s20.8281 -213.86 58.0039 -290.374c17.1465 -35.293 37.5664 -63.5605 58.3516 -81.6543c20.0088 -17.4189 39.7871 -25.4922 59.1084 -25.4922h10v-68.7451
h-10z" />
    <glyph glyph-name="parenright" unicode=")" horiz-adv-x="359" 
d="M38 -138.532v68.7432h10c19.3398 0 39.0898 8.06543 59.1074 25.4922c20.7842 18.0947 41.2051 46.3623 58.3516 81.6553c37.1748 76.5137 58.0039 179.851 58.0039 290.374s-20.8291 213.859 -58.0039 290.374c-17.1455 35.292 -37.5645 63.5586 -58.3506 81.6543
c-20.0088 17.4189 -39.7891 25.4932 -59.1084 25.4932h-10v68.7451h10c71.4668 0 134.606 -53.876 179.292 -145.85c42.0771 -86.6055 64.915 -200.189 64.915 -320.416c0 -120.226 -22.8379 -233.812 -64.915 -320.416
c-44.6865 -91.9736 -107.825 -145.85 -179.292 -145.85h-10z" />
    <glyph glyph-name="asterisk" unicode="*" horiz-adv-x="530" 
d="M463.344 607.776v-68.167h-142.221l112.532 -149.009l-54.3975 -41.082l-126.586 167.619l-126.586 -167.619l-54.3965 41.082l112.532 149.009h-142.222v68.167h142.223l-112.533 149.01l54.3965 41.082l126.586 -167.62l126.585 167.618l54.3984 -41.0791
l-112.533 -149.011h142.222z" />
    <glyph glyph-name="plus" unicode="+" horiz-adv-x="628" 
d="M556 331.159v-70h-221v-269.838h-70v269.838h-221v70h221v269.841h70v-269.841h221z" />
    <glyph glyph-name="comma" unicode="," horiz-adv-x="226" 
d="M111.889 -160.137l-24.3682 65.334l8.7334 3.5293c0.143555 0.0585938 37.8975 14.8271 37.8965 71.208v95.1182h70v-95.1182c0 -53.125 -21.4717 -87.3916 -39.7188 -106.546c-19.9395 -20.9307 -40.1748 -28.9209 -43.1768 -30.0391z" />
    <glyph glyph-name="hyphen" unicode="-" horiz-adv-x="426" 
d="M56 261.16v70h294.84v-70h-294.84z" />
    <glyph glyph-name="period" unicode="." horiz-adv-x="222" 
d="M146.83 109.661c33.1426 0 56.0479 -25.6191 56.0479 -59.1709c0 -32.665 -22.0781 -59.1699 -56.8291 -59.1699c-33.2891 0 -56.0488 26.4326 -56.0488 59.1699c0 33.7793 23.8418 59.1709 56.8301 59.1709z" />
    <glyph glyph-name="slash" unicode="/" horiz-adv-x="559" 
d="M160.036 -9.98047h-73.4785l266.373 803.98h73.9248z" />
    <glyph glyph-name="zero" unicode="0" horiz-adv-x="632" 
d="M302.685 -9.99219c-61.3145 0 -116.864 22.5186 -159.896 64.9287c-38.0127 37.4678 -64.4463 87.9795 -76.7656 145.843c-21.5098 101.048 -21.5098 281.433 0.000976562 382.479c12.3184 57.8643 38.7539 108.376 76.7666 145.842
c43.0312 42.4121 98.5801 64.9297 159.895 64.9297c61.3125 0 116.863 -22.5186 159.895 -64.9297c38.0117 -37.4648 64.4482 -87.9785 76.7646 -145.842c21.5088 -101.049 21.5098 -281.43 0.000976562 -382.479c-12.3213 -57.8643 -38.7529 -108.375 -76.7666 -145.844
c-43.0303 -42.4092 -98.5801 -64.9277 -159.895 -64.9277zM302.684 724.315c-99.249 0 -152.146 -78.8838 -168.472 -155.571c-19.1191 -89.8145 -19.1191 -263.637 0 -353.448c16.3262 -76.6895 69.2236 -155.573 168.473 -155.573
c99.251 0 152.146 78.8838 168.473 155.574c19.1201 89.8105 19.1201 263.633 0 353.445c-16.3262 76.6904 -69.2236 155.573 -168.474 155.573z" />
    <glyph glyph-name="one" unicode="1" horiz-adv-x="361" 
d="M279.717 -9.98047l-69.999 0.00195312v669.784c-3.49707 -3.8623 -4.38672 -4.8125 -6.37305 -6.92871c-20.7383 -22.1055 -42.1455 -41.2354 -62.207 -55.4756c-25.5752 -18.1514 -48.0771 -28.0049 -69.1377 -28.0049h-36v70h35.9941
c4.55859 0.131836 37.0938 15.3252 80.2998 61.375c17.1201 18.248 32.5586 37.7354 43.2354 54.457c10.9717 17.1846 14.0068 27.8047 14.1875 28.9912v9.78223h70v-803.982z" />
    <glyph glyph-name="two" unicode="2" horiz-adv-x="551" 
d="M476.924 -10.0107l-432.924 -0.000976562v34.8438c0 95.0312 24.4121 174.349 74.8105 241.09c43.5625 57.6924 98.3203 96.5811 150.205 133.555c82.5215 58.8027 141.551 101.781 142.164 191.767c-0.0751953 1.62891 -2.19434 36.4619 -20.3584 68.7725
c-23.8232 42.3809 -64.2188 64.0303 -123.662 64.0303c-45.4502 0 -84.8604 -12.7051 -117.979 -37.6768c-24.6152 -18.5596 -36.5762 -37.6592 -36.6592 -37.792l-5.03906 -8.33008l-59.8496 35.5322l5.10156 8.59766c2.10156 3.54102 18.2227 29.6719 52.2861 55.9521
c31.6338 24.4053 85.5449 53.4033 162.14 53.4033c106.425 0 160.164 -55.2822 185.534 -101.592c26.7969 -48.915 28.083 -96.1953 28.1729 -99.7764c0 -58.376 -18.3652 -107.949 -55.8545 -152.326c-32.0576 -37.9492 -73.0205 -67.0039 -115.556 -97.3135
c-92.1387 -65.6572 -182.479 -130.972 -194.446 -283.045h361.914v-69.6904z" />
    <glyph glyph-name="three" unicode="3" horiz-adv-x="584" 
d="M281.456 -3.55078c-83.4414 0 -142.117 31.5645 -176.545 58.125c-37.7031 29.0908 -55.6104 58.7568 -56.752 60.6787l-5.10449 8.59863l60.0996 35.6797l5.06543 -8.3252c0.569336 -0.912109 13.9062 -21.9229 41.0742 -42.4521
c37.1172 -28.0469 81.2998 -42.3076 132.159 -42.3076c104.124 0 165.581 80.3477 165.581 157.604c0 40.2646 -17.1074 76.751 -48.5547 103.248c-38.7266 32.6299 -94.7188 50.7012 -189.081 50.7012h-10.0322l0.224609 70h9.96777
c69.7539 0 124.592 16.3809 159.276 45.6035c28.0449 23.627 43.2803 56.1289 43.2803 92.001c0 69.0625 -54.9697 140.947 -148.233 140.947c-108.638 0 -154.865 -74.6689 -155.551 -75.7852l-17.8438 -30.0566l-60.1924 35.7363l17.8682 30.0996
c2.1084 3.54785 18.3301 29.8418 52.5957 56.2773c31.8262 24.5566 86.0625 53.7285 163.123 53.7285c61.3506 0 117.908 -23.3184 158.832 -65.8105c37.7422 -39.1875 59.4014 -91.9551 59.4014 -145.135c0 -56.7295 -24.3369 -108.602 -68.1777 -145.537
c-9.40527 -7.92285 -21.0312 -15.9414 -31.124 -21.8477c23.7842 -10.5312 42.9541 -22.3799 60.7686 -37.3877c47.2422 -39.8008 73.4531 -95.668 73.4531 -156.781c0 -57.3535 -23.373 -114.289 -64.0986 -156.579c-44.1641 -45.8545 -105.213 -71.0234 -171.48 -71.0234z
" />
    <glyph glyph-name="four" unicode="4" horiz-adv-x="618" 
d="M550.827 346.632l0.000976562 -69.999h-91.1777v-286.613h-70v286.612h-348.271l-0.401367 63.416l354.718 453.952h63.9541v-447.368h91.1768zM134.96 346.632l254.69 0.000976562v325.94z" />
    <glyph glyph-name="five" unicode="5" horiz-adv-x="583" 
d="M443.291 426.88c45.502 -48.4062 70.6074 -112.684 70.6074 -180.617c0 -67.9385 -24.9697 -132.068 -70.4053 -180.407c-45.8525 -48.7764 -107.224 -75.8232 -172.543 -75.8232c-96.7168 0 -183.99 60.4795 -222.617 153.453l-13.4062 32.2695l64.541 26.8086
l13.4062 -32.2686c27.9844 -67.3584 90.1846 -110.378 158.078 -110.378c94.8174 0 173.063 83.0039 173.063 186.341c0 103.334 -78.248 186.339 -173.063 186.339c-46.3486 0 -89.8223 -19.3711 -122.692 -54.9482l-20.0615 -21.7129l-64.665 2.61035l17.7451 435.379
h386.771v-69.8867h-319.675l-10.7393 -263.514c12.4805 8.61426 23.9199 15.0781 37.0186 21.0449c30.4346 13.8662 62.8975 20.916 96.2979 20.916c65.3193 0 126.485 -26.8271 172.339 -75.6055z" />
    <glyph glyph-name="six" unicode="6" horiz-adv-x="620" 
d="M475.672 426.493c44.6572 -48.5059 69.1631 -112.785 69.1631 -180.83s-24.5078 -132.32 -69.165 -180.827c-45.2012 -49.0977 -105.809 -76.3672 -170.378 -76.3672s-125.177 27.2695 -170.379 76.3682c-44.8369 48.7031 -71.3408 107.65 -71.3408 263.499
c0 140.816 -13.4521 305.677 75.1387 397.809c42.1055 43.7881 101.889 65.5264 175.86 65.5264c38.2383 0 76.2305 -9.89941 109.95 -28.6201c32.3691 -17.9707 60.8564 -44.04 82.5488 -75.4395l19.7764 -28.627l-57.2529 -39.5547l-19.7803 28.627
c-32.6992 47.334 -81.9248 74.0244 -135.241 74.0244c-57.1777 0 -97.4834 -14.8281 -125.697 -44.1689c-50.1963 -52.2031 -59.7295 -153.304 -58.4902 -256.475c2.0752 2.37012 2.92578 3.3125 4.53027 5.05566c45.2021 49.0977 105.81 76.3662 170.379 76.3662
s125.176 -27.2686 170.378 -76.3662zM305.293 58.0596c92.9023 0 169.953 83.3701 169.953 187.604c0 104.233 -77.0518 187.604 -169.953 187.604c-92.9023 0 -169.955 -83.3711 -169.955 -187.604s77.0527 -187.604 169.955 -187.604z" />
    <glyph glyph-name="seven" unicode="7" horiz-adv-x="637" 
d="M196.685 -9.98047l-69.626 -0.000976562v10c0 66.5537 20.8955 148.851 61.4707 245.247c31.8867 75.7539 76.124 160.768 131.495 252.827c55.9834 93.0791 113.234 176.117 149.111 226.269h-425.135v69.627h517.519l-0.114258 -61.4346l-2.0459 -2.67871
s-87.9229 -115.07 -179.918 -268.075c-120.147 -199.839 -182.757 -360.35 -182.757 -461.78v-10z" />
    <glyph glyph-name="eight" unicode="8" horiz-adv-x="596" 
d="M455.425 383.983c45.9121 -43.4912 71.2246 -101.562 71.2207 -163.479c0 -61.9189 -25.4482 -120.122 -71.3613 -163.614c-45.5254 -43.125 -105.953 -66.8369 -169.963 -66.8369c-64.0078 0 -124.436 23.7119 -169.962 66.8369
c-45.9121 43.4922 -71.3604 101.693 -71.3604 163.614c0 61.9199 25.4482 120.119 71.3574 163.612c13.5469 12.832 29.5303 24.5811 44.6113 33.4004c-11.5488 7.49609 -20.2734 14.2822 -29.6777 22.918c-42.4316 38.9629 -66.0312 91.2891 -66.0312 147.056
s23.5996 108.091 66.0312 147.057c41.8145 38.3926 97.1787 59.4541 155.743 59.4541s113.934 -21.0596 155.743 -59.4551c42.4287 -38.9648 66.0303 -91.29 66.0303 -147.057c0 -55.7646 -23.5996 -108.091 -66.0293 -147.056
c-9.37305 -8.60742 -20.4033 -16.9502 -30.3574 -23.3564c16.6025 -9.79004 30.4297 -20.2324 44.0049 -33.0938zM134.236 587.492c0 -74.4307 67.2588 -136.538 151.799 -136.538c84.5381 0 151.799 62.1113 151.799 136.538c0 74.4307 -67.2578 136.538 -151.799 136.538
c-84.5371 0 -151.799 -62.1113 -151.799 -136.538zM285.323 60.0273c94.999 0 171.35 72.5312 171.35 160.478c0 87.9453 -76.3496 160.477 -171.35 160.477c-94.999 0 -171.351 -72.5332 -171.351 -160.477c0 -87.9463 76.3516 -160.478 171.351 -160.478z" />
    <glyph glyph-name="nine" unicode="9" horiz-adv-x="620" 
d="M115.439 353.356c-44.7432 48.5996 -69.4395 113.081 -69.4395 181.125c0 68.0449 24.5098 132.318 69.167 180.827c45.2012 49.0977 105.81 76.3662 170.378 76.3662s125.178 -27.2676 170.379 -76.3662c44.8359 -48.7031 71.3408 -107.65 71.3408 -263.499
c0 -140.816 13.4512 -305.677 -75.1396 -397.81c-42.1035 -43.7871 -101.889 -65.5264 -175.859 -65.5264c-38.2383 0 -76.2305 9.89941 -109.95 28.6201c-32.3682 17.9727 -60.8564 44.04 -82.5479 75.4404l-19.7764 28.626l57.2529 39.5547l19.7803 -28.626
c32.6992 -47.333 81.9248 -74.0244 135.241 -74.0244c57.1777 0 97.4834 14.8271 125.697 44.1689c50.1963 52.2031 59.7285 153.303 58.4902 256.475c-2.0752 -2.37012 -2.9248 -3.3125 -4.53027 -5.05566c-45.2012 -49.0967 -105.81 -76.3652 -170.379 -76.3652
s-124.902 26.9717 -170.104 76.0693zM285.541 722.085c-92.9004 0 -169.953 -83.3701 -169.953 -187.604c0 -104.234 77.0518 -187.605 169.953 -187.605c92.9023 0 169.955 83.3711 169.955 187.605c0 104.233 -77.0527 187.604 -169.955 187.604z" />
    <glyph glyph-name="colon" unicode=":" horiz-adv-x="225" 
d="M146.83 109.661c33.1426 0 56.0479 -25.6191 56.0479 -59.1709c0 -32.665 -22.0781 -59.1699 -56.8291 -59.1699c-33.2891 0 -56.0488 26.4326 -56.0488 59.1699c0 33.7793 23.8418 59.1709 56.8301 59.1709zM146.049 382.51
c-33.2881 0 -56.0488 26.4336 -56.0488 59.1699c0 33.7793 23.8418 59.1709 56.8301 59.1709c33.1426 0 56.0479 -25.6191 56.0479 -59.1709c0 -32.665 -22.0781 -59.1699 -56.8291 -59.1699z" />
    <glyph glyph-name="semicolon" unicode=";" horiz-adv-x="239" 
d="M169.541 500.851c33.1416 0 56.0479 -25.6191 56.0479 -59.1709c0 -32.665 -22.0781 -59.1699 -56.8291 -59.1699c-33.2891 0 -56.0488 26.4336 -56.0488 59.1699c0 33.7793 23.8418 59.1709 56.8301 59.1709zM111.888 -160.136l-24.3672 65.3311l8.7334 3.5293
c0.143555 0.0576172 37.8975 14.8262 37.8965 71.207v95.1182h70v-95.1191c0 -53.124 -21.4707 -87.3916 -39.7188 -106.546c-19.9404 -20.9316 -40.1719 -28.9199 -43.1807 -30.0391z" />
    <glyph glyph-name="less" unicode="&#x3c;" horiz-adv-x="643" 
d="M539.145 -13.6162l-498.145 298.889v41.1182l498.145 298.889l35.3271 -58.8789l-434.279 -260.571l434.279 -260.569z" />
    <glyph glyph-name="equal" unicode="=" horiz-adv-x="651" 
d="M56 380.5v70h512v-70h-512zM56 149.5v70h512v-70h-512z" />
    <glyph glyph-name="greater" unicode="&#x3e;" horiz-adv-x="644" 
d="M74.6074 -13.6162l-35.3281 58.876l434.279 260.569l-434.278 260.571l35.3271 58.8789l498.144 -298.889v-41.1182z" />
    <glyph glyph-name="question" unicode="?" horiz-adv-x="538" 
d="M399.722 105.694c32.3936 0 54.7852 -25.0654 54.7852 -57.8232c0 -31.8926 -21.585 -57.8203 -55.5439 -57.8203c-32.5381 0 -54.7861 25.8555 -54.7861 57.8203c0 32.9873 23.3057 57.8232 55.5449 57.8232zM573.912 736.783
c36.416 -34.2402 55.292 -83.2734 55.2959 -140.558c0 -67.1533 -15.1182 -119.694 -47.3242 -158.957c-28.1611 -34.3311 -63.4287 -51.749 -92.9531 -66.4619c-45.8203 -22.834 -61.6484 -31.9697 -61.6484 -68.9541v-34.3154h-68.6289v34.3154
c0 80.5537 55.9141 108.575 99.665 130.377c54.8301 27.3252 102.258 49.0957 102.258 163.996c0 85.792 -51.877 129.109 -165.188 129.109c-51.2627 0 -99.8799 -27.0752 -133.327 -75.5156l-19.498 -28.2373l-56.4736 38.9941l5.16504 7.48145
c0.569336 0.823242 -0.0507812 -0.0751953 0.517578 0.748047l13.8154 20.0078c45.8838 66.4512 115.085 105.149 189.802 105.149c76.9707 0 137.568 -18.6719 178.522 -57.1797z" />
    <glyph glyph-name="at" unicode="@" horiz-adv-x="1021" 
d="M790.889 552.644l-89.0527 -440.176c-1.65039 -8.54199 -2.25 -33.9502 6.59766 -44.6807c4.30078 -5.21484 12.0459 -8.86426 27.0498 -8.86426c15.9199 0 30.7676 6.53711 46.4775 22.0537c15.0625 14.8789 29.3809 36.9932 42.0156 65.8262
c23.1152 52.7393 35.3867 118.545 35.3867 154.184c0 93.4658 -25.5391 180.539 -68.4746 251.657zM773.31 579.393c-68.5137 96.1328 -171.179 156.976 -285.132 156.976c-203.335 0 -371.18 -193.991 -371.18 -435.383c0 -241.393 167.845 -435.383 371.18 -435.386
c44.2568 0 87.4824 9.03223 128.631 26.8975c25.085 10.8916 49.2832 25.0732 71.8994 42.1572l27.9258 21.0947l42.1943 -55.8545l-27.9268 -21.0967c-27.002 -20.3936 -55.998 -37.3896 -86.2139 -50.5078c-49.918 -21.6719 -102.626 -32.6865 -156.509 -32.6865
c-60.1973 0 -118.652 13.666 -173.499 40.5342c-52.6738 25.8008 -99.8652 62.6475 -140.204 109.362c-40.1064 46.4453 -71.5391 100.439 -93.4336 160.384c-22.5957 61.8701 -34.043 127.537 -34.043 195.104s11.4473 133.232 34.0439 195.103
c21.8945 59.9434 53.3281 113.938 93.4336 160.384c40.3359 46.7148 87.5303 83.5625 140.204 109.362c54.8496 26.8672 113.3 40.5352 173.499 40.5352c60.2002 0 118.65 -13.668 173.502 -40.5342c52.6738 -25.7998 99.8662 -62.6484 140.204 -109.362
c40.1064 -46.4482 72.1152 -102.018 94.3047 -162.769c22.5967 -61.8672 33.1748 -125.153 33.1748 -192.718c0 -43.1855 -12.8145 -117.339 -41.2734 -182.282c-15.9102 -36.3018 -34.9326 -65.7979 -56.9395 -87.5332
c-27.9395 -27.5928 -60.4121 -42.251 -95.6689 -42.251c-42.9561 0 -68.1953 18.5879 -81.3135 34.6455c-11.6494 14.2559 -17.6475 30.585 -20.7744 45.4062c-18.2822 -15.9971 -35.249 -27.2578 -55.3623 -37.1113c-32.0791 -15.7119 -66.3428 -23.7236 -101.605 -23.7236
c-35.2617 0 -69.5254 8.01172 -101.604 23.7236c-30.6768 15.0264 -58.1143 36.4512 -81.4932 63.5254c-47.4277 54.9248 -73.3779 127.491 -73.3779 204.239s25.9502 149.312 73.3779 204.238c23.3789 27.0732 50.8164 48.498 81.4932 63.5254
c32.0791 15.7119 66.3428 23.7236 101.604 23.7236c35.2627 0 69.5264 -8.01172 101.605 -23.7246c30.6768 -15.0254 58.1162 -36.4502 81.4951 -63.5244c15.041 -17.4199 28.0947 -37.082 38.5039 -57.1797l28.751 142.119zM476.427 78.1387
c101.422 0 186.479 97.9688 186.479 221.488c0 123.519 -85.0576 221.484 -186.479 221.484s-186.479 -97.9648 -186.479 -221.485c0 -123.52 85.0586 -221.487 186.479 -221.487z" />
    <glyph glyph-name="A" unicode="A" horiz-adv-x="717" 
d="M102.846 -9.92285l-73.1143 -0.0732422l280.629 803.815l60.4287 -0.00976562l280.292 -803.808l-73.0889 0.0839844l-104.078 298.502c-19.3008 -7.02051 -39.8613 -9.82324 -65.4941 -9.82324h-148.216c-53.0791 0 -68.3662 -34.334 -69.3809 -36.6396z
M340.553 671.079l-113.944 -326.434c11.1504 2.10742 21.3545 3.0752 33.5947 3.0752h148.216c23.4688 0 37.2158 3.74512 42.7861 5.99609z" />
    <glyph glyph-name="B" unicode="B" horiz-adv-x="711" 
d="M559.574 381.33c43.2432 -43.2432 67.1123 -100.863 67.1123 -162.017c0 -61.1543 -23.8682 -118.775 -67.1104 -162.019c-43.2529 -43.2549 -101.239 -66.8262 -161.4 -67.1104l-334.174 -0.191406v804.008h333.559c114.513 0 207.65 -93.1377 207.65 -207.65
c0 -70.9717 -36.3564 -133.675 -89.4531 -170.65c16.3545 -9.91895 30.4072 -20.9609 43.8164 -34.3701zM397.561 723.926h-263.483v-255.08c0.40332 -4.08594 1.80176 -9.38477 4.99512 -12.7695c3.64746 -3.86426 11.7832 -7.30371 26.3486 -7.30371h232.141
c75.8447 0 137.575 61.7314 137.575 137.577c0 75.8447 -61.7305 137.576 -137.576 137.576zM397.54 60.2617c87.7227 0 159.07 71.3662 159.07 159.053s-71.3525 159.05 -159.065 159.05l-232.136 0.333984c-11.0049 0 -23.0723 1.50781 -31.3311 3.46387v-322.087h217.621
z" />
    <glyph glyph-name="C" unicode="C" horiz-adv-x="732" 
d="M378.712 -9.9502c-45.4131 0 -89.4814 11.1182 -130.698 32.9023c-39.3193 20.7832 -74.4297 50.3652 -104.331 87.7324c-60.5742 75.6934 -93.6836 175.609 -93.6836 281.344c0 105.733 33.1084 205.65 93.6826 281.345
c29.9023 37.3652 65.0107 66.9512 104.331 87.7334c41.2168 21.7852 85.2861 32.9033 130.699 32.9033c52.4307 0 104.499 -15.4023 150.58 -44.3994c43.8984 -27.6201 82.6006 -67.6367 112.19 -115.712l18.4648 -29.998l-59.9941 -36.9248l-18.4648 29.9951
c-49.96 81.1709 -123.949 126.59 -202.775 126.59c-140.359 0 -258.267 -146.67 -258.267 -331.532s117.908 -331.532 258.267 -331.532c78.832 0 152.811 45.417 202.775 126.595l18.4639 29.9941l59.9961 -36.9258l-18.4658 -29.9961
c-29.5908 -48.0742 -68.292 -88.0908 -112.19 -115.715c-46.0801 -28.9971 -98.1494 -44.3984 -150.58 -44.3984z" />
    <glyph glyph-name="D" unicode="D" horiz-adv-x="717" 
d="M304.37 -9.99023l-240.368 1.27832v802.719h240.53c45.0234 0 88.71 -11.0889 129.56 -32.8057c38.9541 -20.7129 73.7314 -50.1895 103.343 -87.4111c59.9658 -75.3818 92.7363 -174.864 92.7363 -280.132c0 -53.085 -8.28418 -104.851 -24.6455 -153.818
c-15.9043 -47.5996 -38.7559 -90.627 -67.9629 -127.797c-29.6133 -37.6924 -64.3584 -67.5654 -103.26 -88.5977c-40.9385 -22.1279 -84.8086 -33.4355 -129.933 -33.4355zM133.963 60.8779l170.666 -0.910156c66.041 0.0234375 129.24 33.335 177.924 95.2939
c49.9043 63.5137 77.6572 148.187 77.6572 238.394c0 184.284 -116.799 330.39 -255.678 330.39h-170.569v-663.167z" />
    <glyph glyph-name="E" unicode="E" horiz-adv-x="636" 
d="M550.816 -9.97363l-486.816 -0.00195312v803.975l486.75 0.00976562l0.0361328 -69.9746l-416.811 0.0166016v-279.321c10.2744 2.44434 20.1436 3.48438 31.3809 3.48438h385.413v-69.9766h-385.412c-14.7207 0 -22.8291 -3.51172 -26.417 -7.42871
c-3.69043 -4.03223 -4.88086 -11.7168 -4.96387 -14.2246v-296.518l416.744 -0.0683594z" />
    <glyph glyph-name="F" unicode="F" horiz-adv-x="646" 
d="M160.586 447.907l338.558 -0.00195312v-70.0156h-333.715c-14.5459 0 -22.6689 -3.43457 -26.3047 -7.28809c-4.76758 -5.05566 -5.10938 -15.1943 -5.10938 -15.1943v-365.388h-70.0146v803.967h512.137l0.0195312 -70.0146l-442.142 0.0136719v-279.575
c7.49023 1.7666 17.1797 2.87305 26.5713 3.49707z" />
    <glyph glyph-name="G" unicode="G" horiz-adv-x="788" 
d="M377.849 -9.89648c-45.3066 0 -89.2754 11.1201 -130.391 32.9102c-39.2168 20.7861 -74.2334 50.3691 -104.051 87.7344c-60.4004 75.6816 -93.4121 175.575 -93.4121 281.285c0 105.709 33.0107 205.602 93.4121 281.286
c29.8174 37.3643 64.833 66.9492 104.051 87.7334c41.1152 21.7891 85.0791 32.9121 130.386 32.9121c54.6934 0 108.746 -16.7773 156.276 -48.332c45.2764 -30.0576 84.4727 -73.3066 113.62 -125.041l4.90918 -8.71289l-61.1084 -34.4277l-4.9082 8.71191
c-48.9922 86.957 -127.297 137.663 -208.788 137.663c-140.028 0 -257.709 -146.765 -257.709 -331.793c0 -185.03 117.681 -331.794 257.708 -331.794c106.205 0 233.069 124.202 249.302 292.821c-43.8213 -0.0644531 -190.278 -0.28125 -190.841 -0.28125
c-25.2725 0 -44.4482 -7.12891 -58.4453 -20.4668c-8.76367 -8.34961 -12.6641 -16.8047 -12.8613 -17.2412l-3.39453 -9.14258l-65.7295 24.5137l3.49219 9.36914c1.11914 3.00098 9.13086 23.2939 30.1133 43.2822c18.4053 17.5371 50.4404 37.4463 99.0742 39.6768
c4.20312 0.435547 198.911 0.728516 198.911 0.728516l36.3965 -0.245117c9.29199 0 18.2041 -3.68555 24.7822 -10.2549c6.58496 -6.57812 10.2881 -15.5039 10.2881 -24.8145c0 -51.8975 -9.13281 -103.147 -27.126 -152.251
c-16.9492 -46.2539 -40.9209 -88.5469 -71.2588 -125.648c-61.9609 -75.7676 -142.854 -120.182 -222.698 -120.182z" />
    <glyph glyph-name="H" unicode="H" horiz-adv-x="690" 
d="M592.235 -9.98047l-70.002 -0.000976562v402.196c-18.3066 -8.31348 -38.1523 -13.5352 -64.2051 -14.1631l-255.24 -0.0527344c-25.1963 0 -44.3105 -7.1084 -58.2637 -20.4023c-5.08496 -4.84473 -8.65527 -9.9502 -10.5264 -12.9521v-354.626h-70v803.98h70v-360.218
c18.6992 8.54297 40.8926 14.2178 68.79 14.2178h250.657c25.1963 0 44.3105 7.10938 58.2637 20.4023c5.08496 4.84473 8.65527 9.94922 10.5264 12.9512v312.647h70v-803.98z" />
    <glyph glyph-name="I" unicode="I" horiz-adv-x="210" 
d="M64 -9.98047v803.98h70v-803.98h-70z" />
    <glyph glyph-name="J" unicode="J" horiz-adv-x="454" 
d="M38 -9.9707l-0.00195312 69.958h10c139.483 0 256.724 146.2 256.724 330.536v403.479h69.9561v-403.479c0 -105.327 -32.8916 -204.863 -93.0762 -280.276c-29.7109 -37.2305 -64.6025 -66.709 -103.68 -87.4199c-40.9678 -21.7129 -84.7764 -32.7969 -129.922 -32.7969
h-10z" />
    <glyph glyph-name="K" unicode="K" horiz-adv-x="670" 
d="M139.052 476.605l339.941 317.395h102.764l-396.828 -370.279l-0.209961 -0.175781c-6.61035 -5.52148 -11.2402 -12.4795 -11.2246 -14.9297c0.0195312 -3.09375 5.79004 -10.876 8.09766 -12.791l0.203125 -0.167969l0.194336 -0.178711l439.222 -405.458h-103.567
l-380.82 351.992c-0.96582 0.808594 -2.60156 2.26367 -2.82324 2.4668v-354.459h-70v803.98h70.001v-321.893c2.78223 2.57617 3.12109 2.86719 5.05078 4.49805z" />
    <glyph glyph-name="L" unicode="L" horiz-adv-x="651" 
d="M134 60.0098h442v-70l-512 0.00976562v803.98h70v-733.99z" />
    <glyph glyph-name="M" unicode="M" horiz-adv-x="810" 
d="M637.268 794h68.7305v-803.98h-70v595.939l-217.518 -595.939h-67.2158l-217.266 595.885v-595.885h-70v803.98h68.4814l252.514 -691.421z" />
    <glyph glyph-name="N" unicode="N" horiz-adv-x="684" 
d="M516.222 794h70.001v-803.98h-94.6562l-357.566 656.563v-656.563h-70v803.98h69.2832l382.938 -702.698v702.698z" />
    <glyph glyph-name="O" unicode="O" 
d="M377.836 -9.94727c-45.3047 0 -89.2666 11.123 -130.382 32.9111c-39.2148 20.7861 -74.2285 50.3672 -104.047 87.7295c-60.3965 75.6807 -93.4072 175.57 -93.4072 281.275c0 105.706 33.0098 205.594 93.4072 281.275c29.8174 37.3623 64.832 66.9463 104.047 87.7295
c41.1143 21.7891 85.0771 32.9121 130.382 32.9121c45.3018 0 89.2656 -11.1221 130.378 -32.9121c39.2148 -20.7852 74.2285 -50.3662 104.047 -87.7295c60.3975 -75.6797 93.4102 -175.57 93.4102 -281.275c0 -105.704 -33.0107 -205.595 -93.4102 -281.276
c-29.8184 -37.3613 -64.8301 -66.9424 -104.047 -87.7295c-41.1133 -21.7871 -85.0752 -32.9102 -130.378 -32.9102zM377.836 723.749c-140.022 0 -257.698 -146.757 -257.698 -331.779s117.676 -331.779 257.698 -331.779c140.021 0 257.695 146.756 257.695 331.779
c0 185.022 -117.674 331.779 -257.695 331.779z" />
    <glyph glyph-name="P" unicode="P" horiz-adv-x="679" 
d="M397.646 794c114.456 0 206.774 -94.2852 206.774 -208.538c0 -114.35 -93.0156 -207.354 -207.339 -207.354l-231.803 -0.333984c-14.7285 0 -22.8418 -3.5127 -26.4365 -7.4375c-3.0752 -3.35742 -4.55078 -9.74023 -4.84277 -12.5273v-367.79h-70v803.98h333.646z
M397.05 448.108c75.7266 0 137.37 61.6309 137.37 137.353c0 75.7949 -61.7852 138.538 -137.386 138.538l-263.035 -0.246094v-279.44c9.22559 2.16797 17.1455 3.1123 27.0264 3.38477z" />
    <glyph glyph-name="Q" unicode="Q" 
d="M377.821 60.3311c140.014 0 257.685 146.75 257.685 331.764s-117.67 331.763 -257.685 331.763s-257.686 -146.75 -257.686 -331.763c0 -185.015 117.671 -331.764 257.686 -331.764zM649.094 55.4961l4.28711 -69.793l-10 -0.597656
c-0.595703 -0.0361328 -1.88086 -0.0976562 -3.73242 -0.0976562c-7.89062 0 -26.3242 1.0752 -48.0273 10.0273c-17.1084 7.05664 -38.8887 20.7549 -57.2041 43.707c-9.50293 -6.29688 -17.0869 -10.792 -26.2246 -15.6367
c-41.1104 -21.7881 -85.0713 -32.9121 -130.373 -32.9121s-89.2627 11.124 -130.375 32.9121c-39.2129 20.7842 -74.2266 50.3643 -104.042 87.7266c-60.3936 75.6758 -93.4033 175.561 -93.4033 281.263c0 105.701 33.0098 205.585 93.4033 281.263
c29.8164 37.3613 64.8271 66.9424 104.044 87.7266c41.1123 21.7871 85.0732 32.9102 130.375 32.9102s89.2607 -11.123 130.373 -32.9111c39.2129 -20.7842 74.2256 -50.3643 104.042 -87.7256c60.3955 -75.6768 93.4053 -175.561 93.4053 -281.263
c0 -105.699 -33.0107 -205.586 -93.4043 -281.262c-7.58203 -9.50098 -16.0068 -18.9912 -23.8975 -27.1348c23.752 -30.3223 50.9023 -28.5703 51.3125 -28.5586z" />
    <glyph glyph-name="R" unicode="R" horiz-adv-x="694" 
d="M628.828 -9.98047l-76.8379 0.000976562l-156.331 351.94c-21.1572 35.418 -42.4668 35.7988 -43.499 35.877l-186.881 -0.0625c-14.7295 0 -22.8428 -3.5127 -26.4375 -7.4375c-3.0752 -3.35742 -4.55078 -9.74023 -4.84277 -12.5273v-367.79h-70v803.98h333.068
c114.429 0 207.351 -94.248 207.351 -208.538c0 -95.9932 -65.2227 -175.978 -153.274 -200.187c3.26465 -4.99707 6.25977 -10.0752 9.24316 -15.7412l0.15625 -0.295898zM133.999 444.314c9.22559 2.16797 17.1475 3.11328 27.0273 3.38281l236.04 0.411133
c75.7217 0 137.353 61.6309 137.353 137.354c0 75.793 -61.6074 138.269 -137.24 138.269l-263.18 0.0146484v-279.431z" />
    <glyph glyph-name="S" unicode="S" horiz-adv-x="695" 
d="M327.825 -9.96582c-74.4902 0 -130.748 8.96973 -176.492 28.8936c-49.3828 21.5098 -79.0684 53.7295 -98.8799 78.71l-21.7021 27.3662l55.9121 41.5215l21.3096 -26.8701c34.0039 -42.874 73.6973 -81.0215 219.854 -81.0215
c134.302 0 212.496 62.7646 212.496 161.192c0 87.8633 -75.2939 114.312 -216.695 149.08c-62.1045 15.2715 -127.176 31.0732 -178.301 60.9766c-29.3271 17.1543 -51.6104 37.4678 -67.3936 61.9756c-17.6807 27.457 -26.5322 59.8672 -26.5322 95.7383
c0 60.7197 22.8945 112.396 66.3672 147.985c48.0938 39.3691 119.129 58.418 210.059 58.418c87.1758 0 168.583 -39.5791 223.181 -108.421l21.7061 -27.3672l-55.9141 -41.5166l-21.3105 26.8662c-41.3066 52.0859 -102.366 81.8369 -167.662 81.8369
c-76.3457 0 -131.506 -15.0195 -164.948 -42.3945c-27.291 -22.3398 -41.249 -53.7148 -41.249 -95.4072c0 -90.2393 76.2666 -117.031 219.145 -152.162c61.5879 -15.1436 126.114 -30.8135 176.7 -60.25c29.041 -16.8984 51.1143 -36.9014 66.7578 -61.0332
c17.5361 -27.0576 26.3213 -58.9932 26.3213 -94.3223c0 -31.7314 -6.1123 -61.8955 -18.2305 -89.4932c-12.5469 -28.5586 -31.2256 -53.6309 -55.3447 -74.373c-50.668 -43.5664 -123.254 -65.9287 -209.152 -65.9287z" />
    <glyph glyph-name="T" unicode="T" horiz-adv-x="709" 
d="M636.972 793.746l0.000976562 -70h-272.242v-733.727h-70v733.727h-256.73v70h598.972z" />
    <glyph glyph-name="U" unicode="U" horiz-adv-x="667" 
d="M317.021 -9.41992c-68.6025 0 -133.233 26.7676 -181.743 75.2793c-48.5098 48.5127 -75.2793 113.137 -75.2793 181.742v546.398h70v-546.398c0 -103.11 83.9111 -187.021 187.021 -187.021c103.111 0 187.022 83.9121 187.022 187.021v546.398h70v-546.398
c0 -68.6025 -26.7705 -133.23 -75.2822 -181.741c-48.5117 -48.5088 -113.136 -75.2803 -181.739 -75.2803z" />
    <glyph glyph-name="V" unicode="V" horiz-adv-x="723" 
d="M310.555 -9.98047l-280.637 803.98h74.1436l240.175 -687.725l239.665 687.725h74.1318l-280.319 -803.98h-67.1592z" />
    <glyph glyph-name="W" unicode="W" horiz-adv-x="1101" 
d="M946.168 793.957l71.8115 0.0556641l-281.268 -803.994l-59.7783 0.00292969l-153.109 562.549l-152.867 -562.548l-59.8594 -0.0146484l-281.193 804.002l71.4355 -0.046875l235.3 -672.036l162.73 598.831l48.8574 0.00585938l162.905 -598.824z" />
    <glyph glyph-name="X" unicode="X" horiz-adv-x="773" 
d="M708.63 793.996l-298.527 -401.911l298.697 -402.111l-85.2207 0.197266l-255.923 344.74l-255.926 -344.74l-84.4912 -0.198242l297.979 402.11l-298.081 401.913l84.585 0.015625l255.935 -344.752l255.932 344.752z" />
    <glyph glyph-name="Y" unicode="Y" horiz-adv-x="779" 
d="M717.621 793.992l-298.039 -401.512c-4.90625 -13.1621 -14.2441 -42.9248 -14.2441 -82.6924v-319.771h-69.0693v319.771c0 39.9688 -9.76367 70.666 -14.251 82.7051l-297.883 401.498l85.8125 0.0380859l260.857 -351.382l260.854 351.381z" />
    <glyph glyph-name="Z" unicode="Z" horiz-adv-x="754" 
d="M679.839 739.805l-538.541 -679.569h518.868v-70.2178h-621.166v54.1865l538.546 679.579h-518.867v70.2168h621.272z" />
    <glyph glyph-name="bracketleft" unicode="[" horiz-adv-x="254" 
d="M205.975 -148.003h-140.975v942.003h140.975v-69.9873h-70.9893v-802.028h70.9893v-69.9873z" />
    <glyph glyph-name="backslash" unicode="\" horiz-adv-x="424" 
d="M298.964 -9.98047l-266.818 803.98h73.9248l266.373 -803.98h-73.4795z" />
    <glyph glyph-name="bracketright" unicode="]" horiz-adv-x="256" 
d="M38 -148.003v69.9873h70.9883v802.028h-70.9883v69.9873h140.975v-942.003h-140.975z" />
    <glyph glyph-name="asciicircum" unicode="^" horiz-adv-x="504" 
d="M82.0703 595.131l-5.71289 8.20801l-34.2773 49.2451l206.588 143.797l189.459 -145.104l-42.5654 -55.5732l-148.867 114.017z" />
    <glyph glyph-name="underscore" unicode="_" horiz-adv-x="642" 
d="M50 -9.98047v70h512v-70h-512z" />
    <glyph glyph-name="grave" unicode="`" horiz-adv-x="226" 
d="M89.7676 603.811l-0.000976562 33.6689c0.000976562 66.4756 -32.7129 104.132 -33.2803 104.778l-6.40527 7.29102l51.8682 46.8135l6.7002 -7.42383c2.8457 -3.15332 51.1182 -57.9385 51.1172 -151.458v-33.6699h-69.999z" />
    <glyph glyph-name="a" unicode="a" horiz-adv-x="560" 
d="M258.736 -10.043c-56.2227 0 -109.583 17.5518 -150.27 49.8691c-42.457 33.7236 -66.4678 79.8086 -66.4678 129.497c0 49.6914 24.0117 95.7773 66.4688 129.498c40.6855 32.3154 94.0527 49.8711 150.261 49.8711l121.548 0.0878906
c0.28418 -0.0107422 12.6904 0.270508 17.7549 5.0459c3.54688 3.3457 6.82715 10.7207 7.2627 23.0713v32.7021c0 58.3711 -60.0059 109.189 -137.879 109.189c-49.6387 0 -93.9287 -20.6592 -118.839 -54.0498l-20.9814 -28.126l-56.251 41.9629l20.9814 28.126
c38.6885 51.8604 104.233 82.2666 175.089 82.2666c54.2285 0 105.665 -17.7705 144.782 -50.4014c40.4932 -33.7773 63.2754 -79.6826 63.2754 -128.967v-240.274c0 -49.6895 -24.0117 -95.7754 -66.4678 -129.496c-40.6836 -32.3174 -94.0469 -49.873 -150.268 -49.873z
M379.062 278.603l-120.307 -0.0898438c-40.8975 0 -78.7598 -12.5 -106.639 -34.6445c-26.292 -20.8838 -39.9385 -47.3359 -39.9385 -74.5449c0 -27.2061 13.6455 -53.6592 39.9365 -74.543c27.8809 -22.1426 65.7441 -34.6436 106.62 -34.6436
c40.875 0 78.7422 12.502 106.619 34.6436c26.293 20.8857 39.9395 47.3369 39.9395 74.5439v111.823c-12.873 -2.96191 -22.3027 -2.72461 -26.2314 -2.54492z" />
    <glyph glyph-name="b" unicode="b" horiz-adv-x="580" 
d="M206.092 -9.98047l-142.093 -0.00195312v803.98h70.0361v-192.435c-0.00195312 -0.0458984 0.0234375 -10.168 5.11328 -15.5625c3.63184 -3.85059 11.793 -7.29297 26.29 -7.29297l40.582 0.115234c78.6602 0 152.673 -30.6582 208.246 -86.2285
c55.5723 -55.5693 86.2285 -129.586 86.2285 -208.174c0 -78.5898 -30.6572 -152.604 -86.2285 -208.174c-55.5713 -55.5684 -129.586 -86.2275 -208.175 -86.2275zM134.035 60.0527h72.0566c123.701 0 224.367 100.665 224.367 224.368
c0 123.701 -100.688 224.366 -224.338 224.366l-40.583 -0.116211c-11.0811 0 -23.1289 1.49902 -31.5029 3.4834v-452.102z" />
    <glyph glyph-name="c" unicode="c" horiz-adv-x="560" 
d="M299.661 -10.1133c-35.293 0 -68.5371 8.44043 -100.012 24.6299c-30.1963 15.5332 -57.1475 37.6328 -80.0664 65.5049c-46.3672 56.3896 -71.583 132.894 -71.583 209.012c0 76.1084 25.1914 153.374 71.584 209.793c22.9189 27.873 49.8701 49.9717 80.0664 65.5039
c31.6396 16.2744 67.0195 24.6348 100.012 24.6348c75.5801 0 136.204 -30.6621 174.494 -81.9883l20.9287 -28.0537l-56.1084 -41.8564l-20.9287 28.0547c-24.7646 33.1982 -68.7979 53.7686 -118.086 53.8438c-98.5879 -0.15625 -181.962 -98.5508 -181.962 -229.931
c0 -131.347 83.3564 -228.99 181.931 -229.148c49.3428 0.0751953 93.3486 20.6416 118.117 53.8457l20.9277 28.0508l56.1084 -41.8545l-20.9287 -28.0518c-38.376 -51.4453 -101.397 -81.9893 -174.494 -81.9893z" />
    <glyph glyph-name="d" unicode="d" horiz-adv-x="575" 
d="M132.37 76.1074c-55.6172 55.6143 -86.3711 129.727 -86.3711 208.316c0 78.5889 30.6582 152.603 86.2285 208.174c55.5752 55.5781 129.562 86.2285 208.274 86.2285l40.5264 -0.115234c14.5527 0 22.6787 3.43457 26.3184 7.29395
c5.08691 5.39258 5.11523 15.5186 5.11328 15.5625v192.433h70.0352v-803.98h-142.093c-78.5889 0 -152.462 30.5166 -208.032 86.0879zM412.456 512.157c-10.4014 -2.46387 -20.1738 -3.4834 -31.5312 -3.4834l-40.5254 0.116211
c-123.701 0 -224.366 -100.665 -224.366 -224.366c0 -123.703 100.665 -224.368 224.366 -224.368h72.0566v452.102z" />
    <glyph glyph-name="e" unicode="e" horiz-adv-x="571" 
d="M300.476 -9.97656c-69.4102 0 -133.919 32.3926 -181.332 90.2852c-32.2549 39.3818 -54.0986 87.832 -64.4512 139.798c-0.200195 0.800781 -6.69434 27.4521 -6.69434 69.3848c0 78.5469 25.3066 152.868 71.6621 209.24
c22.9434 27.9033 49.9248 50.0254 80.1514 65.5742c31.4453 16.1768 65.1104 24.6592 99.8271 24.6592c58.7881 0 104.692 -15.0303 139.636 -43.749c33.4463 -27.4883 52.2852 -65.4971 52.2852 -106.676c0 -43.1299 -21.4414 -84.2598 -57.9941 -113.006
c-39.4062 -30.9873 -93.9199 -46.791 -157.126 -46.791h-136.757c-0.864258 0 -8.99902 -0.930664 -11.4346 -3.22949c-10.7002 -10.0977 -7.39258 -26.3574 -7.39258 -26.3574l0.0800781 -0.359375l0.0517578 -0.364258
c15.6797 -108.489 91.5596 -188.355 179.488 -188.355c58.4854 0 101.914 19.1387 127.854 53.9121l20.9443 28.0752l56.1533 -41.8916l-20.9463 -28.0762c-28.124 -37.6982 -83.4707 -82.0732 -184.006 -82.0732zM300.236 518.909
c-83.54 -0.12207 -155.374 -72.1768 -176.254 -171.356c11.2217 1.55273 15.6875 1.25586 16.5352 1.24805h135.921c48.8066 0 87.9912 11.4922 113.822 31.8037c20.6826 16.2637 31.2422 36.8086 31.2422 57.9355c-0.000976562 36.2637 -34.3428 80.2686 -121.267 80.3691z
" />
    <glyph glyph-name="f" unicode="f" horiz-adv-x="368" 
d="M276.852 793.999h34.9814v-69.9629h-34.9824c-73.5889 0 -134.85 -60.8916 -144.533 -138.548c9.5332 2.1582 19.3428 3.16309 30.0195 3.16309l124.608 -0.00683594v-69.9639l-124.636 0.0078125c-14.6885 0 -22.7959 -3.50977 -26.3857 -7.42969
c-3.69238 -4.03223 -4.87891 -11.7197 -4.96094 -14.2227v-507.017h-69.9639v573.642c0 60.9092 22.0723 118.468 62.2881 161.902c40.7295 43.9932 95.3662 68.4355 153.564 68.4355z" />
    <glyph glyph-name="g" unicode="g" horiz-adv-x="575" 
d="M342.174 591.515l142.022 0.353516l-0.0927734 -623.021c0 -49.1211 -22.7051 -94.8711 -63.0625 -128.534c-38.9854 -32.5186 -90.2451 -50.2295 -144.29 -50.2295c-70.6143 0 -135.938 30.3008 -174.494 81.9883l-20.9277 28.0527l56.1064 41.8555l20.9277 -28.0547
c24.8145 -33.2617 68.9336 -53.8428 118.387 -53.8428c77.5703 0 137.353 50.6377 137.353 108.766v13.9873c-0.352539 4.07422 -1.7168 9.61328 -5.01562 13.1104c-3.62793 3.84766 -11.7793 7.28613 -26.2646 7.28613l-40.5537 -0.116211
c-78.6025 0 -152.567 30.6348 -208.101 86.168c-55.5322 55.5322 -86.1689 129.495 -86.1689 208.03c0 78.5332 30.6348 152.499 86.1689 208.03c55.5322 55.5332 129.471 86.1699 208.006 86.1699zM382.708 73.2324c11.0732 0 23.1357 -1.5 31.4893 -3.47852v451.94
l-71.9355 -0.178711c-123.674 0 -224.262 -100.589 -224.262 -224.2c0 -123.608 100.612 -224.199 224.17 -224.199z" />
    <glyph glyph-name="h" unicode="h" horiz-adv-x="586" 
d="M433.45 512.723c40.3115 -43.541 62.5508 -101.301 62.5508 -162.253v-360.451h-70v360.451c0 89.2461 -66.2754 160.496 -145.989 160.496l-119.931 -0.131836c-3.27344 -0.155273 -15.5771 0.217773 -26.0801 2.70508v-523.521h-70v803.98h70v-181.29
c0 -14.7637 3.52344 -22.9922 7.57324 -26.7354c5.38281 -4.97559 15.5166 -5.21777 15.5166 -5.21777l122.883 0.210938c58.2646 0 112.716 -24.2207 153.477 -68.2441z" />
    <glyph glyph-name="i" unicode="i" horiz-adv-x="206" 
d="M62 -9.98047v598.98h70v-598.98h-70zM97 767.709c19.3281 0 35 -15.6699 35 -35v-13.709c0 -19.3291 -15.6719 -35 -35 -35s-35 15.6699 -35 35v13.709c0 19.3281 15.6709 35 35 35z" />
    <glyph glyph-name="j" unicode="j" horiz-adv-x="361" 
d="M244.002 767.709c19.3281 0 35 -15.6699 35 -35v-13.709c0 -19.3291 -15.6709 -35 -35 -35s-35 15.6709 -35 35v13.709c0 19.3281 15.6699 35 35 35zM209.002 20.2373v593.764h70v-593.763c0 -60.9521 -22.0869 -118.55 -62.332 -162.016
c-40.7578 -44.0215 -95.4297 -68.4814 -153.67 -68.4814h-35v70h35c79.7363 0 146.002 71.25 146.002 160.496z" />
    <glyph glyph-name="k" unicode="k" horiz-adv-x="605" 
d="M258.423 330.162l292.99 -340.146h-93.0371l-254.624 296.359s-7.49219 7.27734 -13.6523 7.56348c-1.53906 0.0712891 -4.97754 -0.857422 -6.83887 -1.78711l-49.2598 -39.0898v-263.044h-70v803.98h70v-451.571l310.602 246.571h113.086l-311.362 -246.811
c6.36816 -5.33398 10.375 -9.92578 12.0967 -12.0264z" />
    <glyph glyph-name="l" unicode="l" horiz-adv-x="210" 
d="M64 -9.98047v803.98h70v-803.98h-70z" />
    <glyph glyph-name="m" unicode="m" horiz-adv-x="960" 
d="M789.411 520.765c40.3252 -43.5537 62.5889 -101.341 62.5889 -162.293v-368.451h-70v368.451c0 89.2461 -66.2656 160.496 -146 160.496c-79.7354 0 -146 -71.25 -146 -160.496v-368.451h-70v368.451c0 89.2461 -66.2656 160.496 -146 160.496
c-79.7354 0 -146 -71.25 -146 -160.496v-368.451h-70v368.451c0 60.9512 22.0879 118.551 62.3311 162.015c40.7588 44.0225 95.4297 68.4814 153.669 68.4814c58.2402 0 112.91 -24.459 153.669 -68.4824c10.2354 -11.0547 20.0078 -24.1963 27.332 -36.0947
c8.39062 13.6309 16.9004 24.8301 27.3301 36.0957c40.7588 44.0215 95.4287 68.4805 153.669 68.4805c58.2393 0 112.651 -24.1797 153.411 -68.2021z" />
    <glyph glyph-name="n" unicode="n" horiz-adv-x="580" 
d="M490 -9.98047l-70 0.000976562v368.451c0 89.2461 -66.2656 160.496 -146 160.496c-79.7354 0 -146 -71.25 -146 -160.496v-368.451h-70v368.451c0 60.9512 22.0879 118.55 62.3311 162.015c40.7598 44.0225 95.4297 68.4805 153.669 68.4805
s112.91 -24.459 153.669 -68.4814c40.2441 -43.4658 62.3311 -101.063 62.3311 -162.015v-368.451z" />
    <glyph glyph-name="o" unicode="o" horiz-adv-x="655" 
d="M308.472 -9.33008c-35.8584 0 -70.6924 8.23535 -103.299 24.3848c-31.1602 15.4346 -59.0195 37.4307 -82.75 65.2188c-48.1104 56.3359 -74.4238 130.739 -74.4238 209.424c0 78.6885 26.3135 153.09 74.4238 209.43c23.7305 27.7871 51.5889 49.7861 82.751 65.2178
c32.6055 16.1494 67.4414 24.3857 103.299 24.3857s70.6934 -8.23535 103.299 -24.3857c31.1611 -15.4346 59.0186 -37.4297 82.751 -65.2178c48.1094 -56.3389 74.4209 -130.741 74.4209 -209.43c0 -78.6855 -26.3135 -153.087 -74.4229 -209.426
c-23.7305 -27.7881 -51.5898 -49.7832 -82.751 -65.2178c-32.6045 -16.1484 -67.4404 -24.3838 -103.298 -24.3838zM308.473 518.729c-103.523 0 -190.474 -101.247 -190.474 -229.031c0 -127.78 86.9521 -229.026 190.473 -229.026
c103.521 0 190.471 101.246 190.471 229.026c0 127.782 -86.9521 229.031 -190.47 229.031z" />
    <glyph glyph-name="p" unicode="p" horiz-adv-x="579" 
d="M132.036 71.8438c10.4023 2.46387 20.1738 3.48242 31.5303 3.48242l40.5264 -0.115234c123.701 0 224.367 100.664 224.367 224.365c0 123.703 -100.665 224.368 -224.367 224.368h-72.0566v-452.101zM412.264 507.751
c55.5723 -55.5693 86.2285 -129.587 86.2285 -208.176s-30.6582 -152.602 -86.2285 -208.174c-55.5752 -55.5771 -129.562 -86.2285 -208.274 -86.2285l-40.5264 0.114258c-14.5527 0 -22.6777 -3.43359 -26.3184 -7.29492
c-5.1377 -5.44434 -5.11133 -15.3438 -5.11133 -15.7432v-192.249h-70.0352v803.98h142.092c78.5889 0 152.604 -30.6592 208.174 -86.2295z" />
    <glyph glyph-name="q" unicode="q" horiz-adv-x="576" 
d="M342.402 593.98h142.093v-803.979h-70.0361v192.257c0.0478516 2.12402 -0.425781 10.7734 -5.11328 15.7402c-3.63184 3.85156 -11.793 7.29395 -26.29 7.29395l-40.582 -0.115234c-78.6592 0 -152.675 30.6562 -208.246 86.2275s-86.2266 129.584 -86.2266 208.172
c0 78.5898 30.6562 152.604 86.2275 208.175s129.584 86.2295 208.174 86.2295zM414.458 523.945h-72.0576c-123.701 0 -224.366 -100.665 -224.366 -224.368c0 -123.701 100.688 -224.365 224.339 -224.365l40.582 0.115234c11.0811 0 23.1299 -1.49805 31.5029 -3.48145
v452.1z" />
    <glyph glyph-name="r" unicode="r" horiz-adv-x="341" 
d="M128.053 -9.98047l-70.0518 -0.000976562v368.25c0 61.0156 22.1104 118.668 62.3926 162.18c40.8008 44.0664 95.5283 68.5508 153.825 68.5508h10v-70.0537h-10c-79.8252 0 -146.166 -71.3311 -146.166 -160.677v-368.249z" />
    <glyph glyph-name="s" unicode="s" horiz-adv-x="537" 
d="M258.223 -9.84082c-53.1748 0 -93.7852 6.68848 -127.162 21.7139c-36.5176 16.4404 -58.3682 40.9502 -72.8008 59.7598l-21.2812 27.7344l55.4668 42.5605l21.2793 -27.7324c22.0381 -28.7188 46.9131 -54.123 144.498 -54.123
c87.7432 0 137.272 41.2959 137.272 105.574c0 27.583 -10.0879 45.0293 -35.877 60.5381c-26.5654 15.9746 -67.0859 26.5244 -106.962 36.6572c-43.7158 11.1104 -89.8408 22.6348 -126.909 45.042c-46.0908 27.8652 -70.3281 69.6982 -70.3281 122.134
c0 46.5527 17.125 86.5195 49.8057 114.168c35.584 30.1055 87.4756 44.5059 152.999 44.5059c64.0312 0 123.739 -30.0342 163.661 -82.0586l21.2812 -27.7334l-55.4668 -42.5645l-21.2793 27.7344c-26.7969 34.9209 -66.1914 54.707 -108.195 54.707
c-92.9395 0 -132.892 -30.8066 -132.892 -88.7598c0 -28.46 10.3408 -46.4375 36.584 -62.3018c26.8926 -16.2568 67.7451 -26.8906 107.958 -37.1113c43.3525 -11.0146 89.0918 -22.4434 125.773 -44.5059c45.6914 -27.4785 69.7588 -68.7412 69.7588 -120.452
c0 -49.3018 -19.3447 -94.0635 -54.6279 -125.415c-37.3125 -33.1582 -90.3555 -50.0713 -152.557 -50.0713z" />
    <glyph glyph-name="t" unicode="t" horiz-adv-x="349" 
d="M130.128 221.078c0 -89.4863 66.4453 -160.931 146.398 -160.929h10v-70.1289h-10c-58.3789 0 -113.185 24.5176 -154.044 68.6475c-40.3398 43.5723 -62.4824 101.309 -62.4824 162.41v572.922h70.1279v-219.193c10.3887 2.4707 20.2148 3.50293 31.5078 3.50293h124.89
v-70.1279h-124.891c-14.7686 0 -22.9111 -3.52344 -26.5215 -7.46484c-3.71387 -4.05566 -4.90332 -11.7822 -4.98535 -14.2959v-265.343z" />
    <glyph glyph-name="u" unicode="u" horiz-adv-x="576" 
d="M273 -9.98047c-58.2393 0 -112.91 24.459 -153.669 68.4805c-40.2422 43.4658 -62.3311 101.062 -62.3311 162.016v368.451h70v-368.451c0 -89.2461 66.2646 -160.497 146 -160.497c79.7344 0 146 71.251 146 160.497v368.451h70v-368.451
c0 -60.9521 -22.0879 -118.55 -62.3311 -162.016c-40.7568 -44.0234 -95.4307 -68.4805 -153.669 -68.4805z" />
    <glyph glyph-name="v" unicode="v" horiz-adv-x="598" 
d="M313.499 -9.91895h-60.7744l-223.122 598.919h74.5742l178.929 -479.897l178.688 479.897h74.8037z" />
    <glyph glyph-name="w" unicode="w" horiz-adv-x="920" 
d="M280.114 117.213l124.979 403.138h62.5293l124.973 -403.117l175.66 471.767h75.0205l-223.329 -598.959l-61.127 -0.0244141l-122.458 394.685l-122.369 -394.685l-61.2266 0.0244141l-223.164 598.959h74.6055z" />
    <glyph glyph-name="x" unicode="x" horiz-adv-x="604" 
d="M546.22 -9.99316l-84.7119 0.0556641l-174.43 241.176l-174.43 -241.176l-84.0938 -0.0556641l216.374 299.513l-216.501 299.486l84.2197 -0.0214844l174.431 -241.179l174.431 241.179l84.5732 0.0214844l-216.844 -299.482z" />
    <glyph glyph-name="y" unicode="y" horiz-adv-x="602" 
d="M467.968 588.998l72.9434 0.00292969l-244.824 -654.898c-14.4229 -41.2754 -40.1064 -77.0967 -74.0752 -102.96c-35.2471 -26.834 -77.0215 -41.1094 -120.562 -41.1094h-33.9932v67.9863h33.9932c57.1348 0 109.707 38.8887 130.725 99.2861l2.61523 8.59766
c4.2998 12.4893 3.63867 38.5967 -4.04492 72.8018c-6.23535 27.7539 -14.4385 50.1396 -14.4385 50.1396l-186.714 500.155h72.8525l177.617 -476.54c0.000976562 -0.00292969 2.69141 -7.56934 4.77832 -14.0732z" />
    <glyph glyph-name="z" unicode="z" horiz-adv-x="589" 
d="M498.857 -10.1494h-458.83l-0.0283203 54.4727l376.241 474.304h-356.833v70.1738h459.104v-54.1621l-376.486 -474.614h356.832v-70.1738z" />
    <glyph glyph-name="braceleft" unicode="{" horiz-adv-x="429" 
d="M328.312 -134.269c-61.6025 0 -105.799 26.584 -126.991 78.5117c-17.4424 42.7354 -18.2207 96.959 -19.3906 153.191c-3.41895 164.493 -27.0186 190.497 -91.4492 193.692l-52.4824 0.433594v77.0332l52.5107 0.161133
c64.3838 3.19141 88.0049 29.1963 91.4238 193.689c1.16992 56.2324 1.94824 110.457 19.3896 153.193c21.6768 53.1084 67.375 79.6445 131.065 78.4736l38.6289 -0.697266v-77.6162l-40.0283 0.699219c-42.2568 0.760742 -51.0361 -13.6377 -57.793 -30.1924
c-11.1338 -27.2783 -12.5938 -74.6143 -13.6504 -125.474c-2.04102 -98.1758 -11.6357 -155.544 -35 -196.728c-7.37988 -13.0059 -17.3496 -25.4609 -26.6934 -34.165c10.791 -10.0527 19.2275 -21.0078 26.6934 -34.166c23.3604 -41.1768 32.959 -98.5605 35 -196.726
c1.05664 -50.8584 2.51953 -98.1973 13.6494 -125.475c6.75391 -16.543 15.5557 -30.9229 57.7998 -30.1895l40.0225 0.698242v-77.6152l-38.6328 -0.697266c-1.36523 -0.0244141 -2.7207 -0.0371094 -4.07227 -0.0371094z" />
    <glyph glyph-name="bar" unicode="|" horiz-adv-x="210" 
d="M65 -146.031v940.031h70v-940.031h-70z" />
    <glyph glyph-name="braceright" unicode="}" horiz-adv-x="430" 
d="M81.7031 -134.269c-1.35352 0 -2.69824 0.0136719 -4.07422 0.0390625l-38.6279 0.696289v77.6152l40.0215 -0.698242c42.2461 -0.733398 51.0479 13.6475 57.7998 30.1885c11.1318 27.2793 12.5938 74.6152 13.6504 125.476
c2.04102 98.1738 11.6357 155.542 35.001 196.726c7.37891 13.0059 17.3496 25.4619 26.6924 34.166c-10.792 10.0527 -19.2275 21.0078 -26.6934 34.165c-23.3613 41.1768 -32.959 98.5605 -35 196.728c-1.05664 50.8574 -2.51758 98.1953 -13.6494 125.474
c-6.75781 16.5557 -15.5322 30.9531 -57.8008 30.1924l-40.0215 -0.696289v77.6143l38.625 0.697266c63.6973 1.1709 109.393 -25.3643 131.069 -78.4736c17.4424 -42.7373 18.2197 -96.9609 19.3896 -153.193c3.41895 -164.498 26.8457 -190.488 91.6553 -193.7
c0 0 38.1387 -0.104492 42.3057 -0.117188l9.96973 -0.0302734v-77.0332l-52.4824 -0.435547c-64.4297 -3.19336 -88.0303 -29.1992 -91.4492 -193.69c-1.16895 -56.2334 -1.94922 -110.46 -19.3906 -153.191c-21.1914 -51.9307 -65.3867 -78.5166 -126.99 -78.5166z" />
    <glyph glyph-name="asciitilde" unicode="~" horiz-adv-x="589" 
d="M371.712 256.138c-47.4893 0 -87.7617 32.9336 -121.913 60.0273c-31.8027 25.2324 -61.3115 45.8477 -77.5713 42.0244c-12.2988 -2.89258 -30.9434 -22.2783 -49.2891 -61.4141l-14.8564 -31.6914l-63.3818 29.7109l14.8545 31.6914
c26.4219 56.3633 57.5205 90.6475 96.6543 99.8457c24.9834 5.87207 50.9141 0.881836 77.9785 -13.6836c20.9316 -11.2656 40.5225 -26.8916 59.1182 -41.6445c33.5703 -26.6328 64.7275 -48.876 85.0742 -44.0869c17.4824 4.11719 40.4189 28.7256 64.0273 79.1816
l14.833 31.7021l63.4043 -29.6641l-14.833 -31.7021c-15.9082 -33.998 -32.291 -60.1162 -50.4092 -79.6602c-18.2422 -19.6758 -38.7539 -32.7607 -60.9805 -37.9951c-7.6709 -1.80469 -15.2646 -2.6416 -22.71 -2.6416z" />
    <glyph glyph-name="exclamdown" unicode="&#xa1;" horiz-adv-x="215" 
d="M68.4697 -9.8252v490.669h70.0732v-490.669h-70.0732zM103.898 675.515c-33.0264 0 -56.8994 25.4209 -56.8994 59.2432c0 32.7773 22.7881 59.2422 56.1162 59.2422c34.793 0 56.8975 -26.5371 56.8975 -59.2422
c0.000976562 -33.5928 -22.9316 -59.2432 -56.1143 -59.2432z" />
    <glyph glyph-name="cent" unicode="&#xa2;" horiz-adv-x="534" 
d="M403.195 113.93l20.7812 27.8525l56.1064 -41.8584l-20.9287 -28.0518c-31.6035 -42.3623 -81.2842 -70.0146 -136.177 -78.9404v-55.0791h-70v54.4502c-24.1123 3.65137 -46.4102 10.9414 -68.3271 22.2158c-30.1963 15.5322 -57.1475 37.6328 -80.0664 65.5049
c-46.4688 56.5107 -71.584 129.76 -71.584 209.791c0 78.4619 25.2793 152.701 71.583 209.014c22.9189 27.8721 49.8701 49.9717 80.0664 65.5039c21.8926 11.2598 45.8896 18.8164 68.3271 22.2148v54.4521h70v-55.0781
c56.4053 -9.17285 104.711 -36.7637 136.178 -78.9424l20.9287 -28.0537l-56.1064 -41.8574l-20.9297 28.0527c-24.7686 33.1992 -68.8027 53.7705 -118.088 53.8457c-98.5029 -0.15625 -181.96 -101.042 -181.96 -229.151c0 -129.536 83.4834 -229.771 181.93 -229.929
c49.3418 0.0751953 93.4561 20.7861 118.267 54.0439z" />
    <glyph glyph-name="sterling" unicode="&#xa3;" horiz-adv-x="635" 
d="M565.486 -9.98047h-526.487v69.3574h10c22.6943 0 37.4941 4.70117 53.4785 42.3594c18.2998 43.1191 29.3447 119.933 32.0488 229.976l-78.2021 -0.125977l-0.112305 70l79.0234 0.126953c0.552734 75.3418 5.62988 134.267 15.9688 185.567
c10.3291 51.249 25.6377 91.623 47.2686 123.021c20.4199 29.6406 46.1143 50.6123 77.8428 63.248c25.3555 10.0977 53.8115 14.6631 88.8389 14.6631c39.7705 0 78.4014 -17.0293 111.522 -48.124c29.9658 -28.1318 55.8604 -68.0898 75.4619 -115.607l3.81445 -9.24512
l-64.709 -26.6953l-3.81445 9.24414c-32.2227 78.1074 -79.3057 120.429 -122.276 120.429c-56.0537 0 -85.6953 -13.7432 -109.035 -47.623c-32.2627 -46.832 -49.8242 -135.182 -50.8799 -268.763l222.15 0.361328l0.113281 -70l-222.941 -0.362305
c-2.89941 -122.784 -14.3447 -202.538 -37.6465 -257.438c-1.98633 -4.68164 -4.37695 -9.74805 -6.33691 -13.6357l404.825 0.472656z" />
    <glyph glyph-name="currency" unicode="&#xa4;" horiz-adv-x="619" 
d="M508.962 364.021c0 -44.4102 -12.3193 -88.3555 -33.0049 -123.665l73.6826 -73.6826l-49.4971 -49.4971l-68.6182 68.6182c-38.6953 -34.5654 -85.3623 -52.7236 -135.463 -52.7236c-50.3008 0 -97.9482 19.2139 -135.463 52.7236l-68.6172 -68.6191l-49.4971 49.4971
l73.6836 73.6826c-21.5537 36.7979 -33 79.292 -33 123.668c0 44.8682 12.5684 89.2598 33.6504 124.792l-74.9619 74.9619l49.498 49.4971l70.1865 -70.1865c38.5811 34.0576 84.8359 51.8867 134.525 51.8867c49.7305 0 96.7988 -18.7305 134.194 -51.5908
l69.8877 69.8887l49.4971 -49.4971l-74.5703 -74.5703c22.8281 -38.6641 33.8867 -80.1152 33.8867 -125.184zM296.064 203.072c77.8291 0 142.896 71.2588 142.896 160.952c0 89.6943 -65.0674 160.953 -142.896 160.953s-142.896 -71.2588 -142.896 -160.953
c0 -89.6934 65.0664 -160.952 142.896 -160.952z" />
    <glyph glyph-name="yen" unicode="&#xa5;" horiz-adv-x="733" 
d="M398.294 392.683c-1.76855 -4.75391 -3.35254 -9.50781 -5.35547 -16.6104h158.28v-69.1016h-167.114c-0.0263672 -11.9492 -0.0478516 -31.2354 -0.0556641 -40.3916h167.171v-69.1025h-167.179v-207.52h-69.1025v207.519h-169.145v69.1025h169.135
c-0.0107422 11.4932 -0.0341797 30.8018 -0.0566406 40.3906h-169.079v69.1016h160.242c-2.54883 9.04297 -3.90039 12.7021 -5.36035 16.625l-270.664 364.594l7.29883 5.41797c0.802734 0.595703 -0.0732422 -0.0546875 0.729492 0.541016l47.4541 35.2285
l263.993 -355.608l263.994 355.608l55.4863 -41.1885z" />
    <glyph glyph-name="section" unicode="&#xa7;" horiz-adv-x="526" 
d="M460.987 390.44c0 -46.1338 -16.6074 -88.25 -47.2246 -118.075c-10.0879 -9.82812 -22.3984 -18.6562 -34.3291 -25.2197c22.6465 -25.5439 32.7031 -54.8057 32.7031 -90.0117c0 -46.1367 -16.6084 -88.2471 -47.2246 -118.075
c-32.9619 -32.1123 -79.9912 -48.5654 -134.936 -48.5654c-98.4268 0 -143.076 31.6436 -175.832 78.4395l-20.0703 28.6738l57.3486 40.1406l20.0664 -28.6738c18.9355 -27.0527 37.8467 -48.582 118.485 -48.582c72.5898 0 112.158 35.9521 112.158 96.6416
c0 35.4688 -17.0205 52.2959 -51.8975 67.3301c-15.3555 2.92285 -143.895 43.1406 -177.308 64.7344c-41.5518 27.9238 -61.3672 66.5791 -61.3672 115.581c0 43.5762 14.7178 81.21 43.1768 107.608c12.668 11.749 27.7852 20.9629 44.8438 27.958
c-26.7529 26.4541 -39.1699 58.7754 -39.1699 97.7412c0 43.5762 14.7188 81.2109 43.1777 107.607c31.543 29.2578 77.5615 43.2812 135.236 43.2812c57.0908 0 109.909 -29.1191 144.816 -78.9863l20.0732 -28.6738l-57.3467 -40.1416l-20.0713 28.6738
c-22.5322 32.1934 -53.4648 49.1279 -87.4678 49.1279c-41.9463 0 -70.916 -9.09766 -87.6338 -24.6016c-13.4541 -12.4805 -20.7803 -30.752 -20.7803 -56.2871c0 -53.9336 39.6787 -68.6533 120.409 -91.1445c37.3838 -10.415 77.0928 -21.2744 109.3 -42.5107
c40.0312 -26.3945 60.8633 -65.5127 60.8633 -113.99zM301.87 295.181c58.2939 7.47852 89.1191 41.0674 89.1172 95.2568c0 52.2725 -39.0898 66.8203 -118.95 89.0684c-7.0918 1.97461 -15.2119 4.25488 -21.791 6.15918h-20.2695
c-41.9453 0 -70.916 -9.09766 -87.6348 -24.6035c-13.4521 -12.4775 -20.7793 -30.749 -20.7793 -56.2842c0 -53.9355 39.6797 -68.6504 120.407 -91.1436c19.7217 -5.49316 41.001 -11.5215 59.9004 -18.4531z" />
    <glyph glyph-name="guillemotleft" unicode="&#xab;" horiz-adv-x="441" 
d="M234.802 91.9102l-200.019 197.7l199.908 198.102l-0.0498047 -98.9287l-100.289 -98.9395l99.9463 -98.5977zM390.691 92.293l-200.161 196.87l200.279 198.474l0.267578 -98.6133l-100.531 -99.1797l100.902 -99.5527z" />
    <glyph glyph-name="uni00B5" unicode="&#xb5;" horiz-adv-x="577" 
d="M427 794l70 -0.000976562v-360.451c0 -60.9531 -22.0869 -118.55 -62.3301 -162.016c-40.7607 -44.0234 -95.4199 -68.4805 -153.681 -68.4805c-0.163086 0 -121.813 0.170898 -122.931 0.195312c-1.71094 0.0117188 -10.7676 -0.706055 -15.6445 -5.34961
c-3.9707 -3.78125 -7.41406 -12.0166 -7.41406 -26.5889v-181.29h-70v803.98h70v-523.518c12.9512 3.06738 21.9404 2.90234 26.3164 2.69336c0 0 111.911 -0.113281 119.712 -0.12207c79.7051 0 145.972 71.249 145.972 160.496v360.451z" />
    <glyph glyph-name="paragraph" unicode="&#xb6;" horiz-adv-x="676" 
d="M580.419 794.14v-804.12h-70v367.727c-0.402344 4.07715 -1.7959 9.36426 -4.9834 12.7432c-2.19336 2.3252 -6.96484 4.77148 -12.1885 5.94238v-386.411h-70v387.986l-175.955 0.101562c-114.291 0 -207.292 93.0049 -207.292 207.354
c0 114.35 93.0234 207.353 207.328 207.353zM247.358 448.109l175.891 -0.103516v275.508l-175.773 -0.699219c-75.8701 0 -137.475 -61.6318 -137.475 -137.352c0 -75.7227 61.6338 -137.354 137.357 -137.354zM493.249 447.112
c6.90918 -0.679688 12.8213 -1.77539 17.1719 -2.79883v279.546l-17.1719 -0.0683594v-276.679z" />
    <glyph glyph-name="guillemotright" unicode="&#xbb;" horiz-adv-x="445" 
d="M210.616 91.9102l0.501953 99.3359l99.9463 98.5977l-100.289 98.9395l-0.0498047 98.9287l199.907 -198.102zM54.7256 92.293l-0.756836 97.998l100.902 99.5527l-100.531 99.1797l0.268555 98.6133l200.278 -198.474z" />
    <glyph glyph-name="questiondown" unicode="&#xbf;" horiz-adv-x="540" 
d="M273.483 678.319c-32.3926 0 -54.7852 25.0664 -54.7842 57.8242c0 31.8936 21.585 57.8203 55.5439 57.8203c32.5371 0 54.7852 -25.8555 54.7852 -57.8213c0 -32.9873 -23.3057 -57.8232 -55.5449 -57.8232zM99.3125 47.2129
c-36.4219 34.2441 -55.3125 83.292 -55.3125 140.574c0 67.1562 15.1162 119.693 47.3203 158.958c28.1611 34.3311 63.4297 51.75 92.9531 66.4629c45.8203 22.834 61.6484 31.9697 61.6484 68.9541v34.3145h68.6289v-34.3145
c0 -80.5547 -55.9131 -108.575 -99.6641 -130.378c-54.8301 -27.3262 -102.259 -49.0957 -102.259 -163.996c0 -85.791 51.877 -129.108 165.188 -129.108c51.2627 0 99.8809 27.0742 133.327 75.5156l19.498 28.2373l56.4736 -38.9951l-19.4961 -28.2373
c-45.8838 -66.4512 -115.085 -105.149 -189.802 -105.149c-76.9717 0 -137.549 18.6553 -178.504 57.1621z" />
    <glyph glyph-name="Agrave" unicode="&#xc0;" horiz-adv-x="718" 
d="M371.529 794.05l280.523 -804.027h-73.8447l-104.074 298.539c-19.6221 -7.04883 -39.7119 -9.73047 -65.2783 -9.73047h-148.146c-24.541 0.000976562 -43.1123 -6.91211 -56.665 -19.8232c-8.33984 -7.94727 -12.2197 -16.1924 -12.3633 -16.5088l-88.1406 -252.479
h-73.6211l280.633 804.04zM408.854 348.368c22.0713 0 36.1426 3.45215 42.377 5.87207l-110.213 316.102l-113.447 -325.014c11.3887 2.13281 20.9961 3.04004 33.1348 3.04004h148.148zM225.778 908.249l42.5576 55.5732l180.585 -138.3l-42.5576 -55.5713z" />
    <glyph glyph-name="Aacute" unicode="&#xc1;" horiz-adv-x="718" 
d="M371.529 794.05l280.523 -804.027h-73.8447l-104.074 298.539c-19.6221 -7.04883 -39.7119 -9.73047 -65.2783 -9.73047h-148.146c-24.541 0.000976562 -43.1123 -6.91211 -56.665 -19.8232c-8.33984 -7.94727 -12.2197 -16.1924 -12.3633 -16.5088l-88.1406 -252.479
h-73.6211l280.633 804.04zM408.854 348.368c22.0713 0 36.1426 3.45215 42.377 5.87207l-110.213 316.102l-113.447 -325.014c11.3887 2.13281 20.9961 3.04004 33.1348 3.04004h148.148zM201.574 825.508l180.584 138.299l42.5605 -55.5713l-180.586 -138.299z" />
    <glyph glyph-name="Acircumflex" unicode="&#xc2;" horiz-adv-x="718" 
d="M371.529 794.05l280.523 -804.027h-73.8447l-104.074 298.539c-19.6221 -7.04883 -39.7119 -9.73047 -65.2783 -9.73047h-148.146c-24.541 0.000976562 -43.1123 -6.91211 -56.665 -19.8232c-8.33984 -7.94727 -12.2197 -16.1924 -12.3633 -16.5088l-88.1406 -252.479
h-73.6211l280.633 804.04zM408.854 348.368c22.0713 0 36.1426 3.45215 42.377 5.87207l-110.213 316.102l-113.447 -325.014c11.3887 2.13281 20.9961 3.04004 33.1348 3.04004h148.148zM346.864 886.82l-168.425 -117.257l-5.19531 7.46094
c-0.571289 0.821289 0.0517578 -0.0742188 -0.519531 0.746094l-34.2832 49.2432l210.392 146.471l192.95 -147.775l-42.5645 -55.5742z" />
    <glyph glyph-name="Atilde" unicode="&#xc3;" horiz-adv-x="718" 
d="M371.529 794.05l280.523 -804.027h-73.8447l-104.074 298.539c-19.6221 -7.04883 -39.7119 -9.73047 -65.2783 -9.73047h-148.146c-24.541 0.000976562 -43.1123 -6.91211 -56.665 -19.8232c-8.33984 -7.94727 -12.2197 -16.1924 -12.3633 -16.5088l-88.1406 -252.479
h-73.6211l280.633 804.04zM408.854 348.368c22.0713 0 36.1426 3.45215 42.377 5.87207l-110.213 316.102l-113.447 -325.014c11.3887 2.13281 20.9961 3.04004 33.1348 3.04004h148.148zM273.438 835.691l-14.7773 -31.5234l-63.3779 29.7129l14.8535 31.6924
c15.8027 33.7119 35.7256 55.3184 61.9297 61.4766c36.126 8.49219 64.5068 -15.0957 86.0225 -32.166c12.2246 -9.69922 26.9355 -19.333 30.5 -19.875c1.64648 0.844727 10.2461 6.69434 22.2178 32.2803l14.834 31.7012l63.4023 -29.6631l-14.833 -31.7031
c-18.5947 -39.7422 -40.4258 -63.9385 -69.6553 -70.8223c-5.34473 -1.25781 -10.6201 -1.83887 -15.7529 -1.83887c-31.0215 0 -55.7979 20.4668 -74.2197 35.083c-8.72754 6.92383 -21.4551 16.2217 -26.6064 18.3584
c-2.55273 -2.24219 -7.66504 -8.05273 -14.5371 -22.7129z" />
    <glyph glyph-name="Adieresis" unicode="&#xc4;" horiz-adv-x="719" 
d="M371.529 794.05l280.523 -804.027h-73.8447l-104.074 298.539c-19.6221 -7.04883 -39.7119 -9.73047 -65.2783 -9.73047h-148.146c-24.541 0.000976562 -43.1123 -6.91211 -56.665 -19.8232c-8.33984 -7.94727 -12.2197 -16.1924 -12.3633 -16.5088l-88.1406 -252.479
h-73.6211l280.633 804.04zM408.854 348.368c22.0713 0 36.1426 3.45215 42.377 5.87207l-110.213 316.102l-113.447 -325.014c11.3887 2.13281 20.9961 3.04004 33.1348 3.04004h148.148zM251.007 799.866c-19.3301 0 -35 15.6709 -35 35v13.71c0 19.3281 15.6689 35 35 35
c19.3271 0 35 -15.6709 35 -35v-13.71c0 -19.3301 -15.6719 -35 -35 -35zM431.007 799.866c-19.3311 0 -35 15.6709 -35 35v13.71c0 19.3271 15.668 35 35 35c19.3271 0 35 -15.6709 35 -35v-13.71c0 -19.3301 -15.6719 -35 -35 -35z" />
    <glyph glyph-name="Aring" unicode="&#xc5;" horiz-adv-x="718" 
d="M303.393 778.463c-33.6592 14.2988 -57.3516 47.6768 -57.3516 86.5381c0 51.8447 42.1533 94 94 94c51.8447 0 93.999 -42.1553 93.999 -94c0 -39.1299 -23.9707 -71.9355 -57.1084 -86.4365l275.121 -788.541h-73.8447l-104.074 298.539
c-19.623 -7.0498 -39.7129 -9.73047 -65.2783 -9.73047h-148.147c-24.54 0.000976562 -43.1123 -6.91211 -56.665 -19.8232c-8.33984 -7.94531 -12.2188 -16.1924 -12.3633 -16.5098l-88.1406 -252.479h-73.6211l273.344 783.16zM316.042 865.001
c0 -13.2197 10.7803 -24 24 -24c13.2188 0 23.999 10.7793 23.999 24s-10.7803 24 -23.999 24c-13.2197 0 -24 -10.7803 -24 -24zM408.855 348.369c22.0713 0 36.1436 3.45215 42.377 5.87109l-110.213 316.102l-113.447 -325.013
c11.3877 2.13184 20.998 3.04004 33.1357 3.04004h148.147z" />
    <glyph glyph-name="AE" unicode="&#xc6;" horiz-adv-x="904" 
d="M805.956 -9.20703l-486.737 -0.668945v287.78c-15.7119 -3.30664 -29.5439 -4.48926 -47.2031 -4.48926h-12.3643c-53.3398 0 -68.7158 -34.4707 -69.7451 -36.8047l-85.9463 -245.823h-74.043l280.545 803.212h495.43l0.0361328 -69.9609l-416.745 -0.231445v-279.032
c10.2695 2.44336 20.1396 3.4834 31.375 3.4834h385.353v-69.9668h-385.352c-14.7188 0 -22.8232 -3.51074 -26.4121 -7.42969c-3.68945 -4.0293 -4.87988 -11.7129 -4.96289 -14.2197v-296.452l416.677 0.570312zM272.015 343.383
c27.8203 0 42.4189 6.05859 47.2021 8.6084v255.08l-93.123 -266.783c10.9883 2.08691 21.3223 3.09473 33.5566 3.09473h12.3643z" />
    <glyph glyph-name="Ccedilla" unicode="&#xc7;" horiz-adv-x="732" 
d="M581.83 186.705l18.5918 30.209l60.0332 -36.9492l-4.76465 -7.74219c-0.524414 -0.851562 0.046875 0.0771484 -0.477539 -0.774414l-13.2334 -21.5c-29.6152 -48.1162 -68.3516 -88.167 -112.286 -115.813c-36.7432 -23.1221 -77.2969 -37.4268 -118.578 -42.5049
v-6.81445c13.2461 -6.47754 23.0371 -14.4961 32.0117 -25.7119c15.7676 -19.7002 24.2461 -45.2158 24.2461 -71.8555c0 -26.6416 -8.47949 -52.1504 -24.2461 -71.8525c-17.0205 -21.2686 -41.5312 -33.8662 -67.3975 -33.8662
c-30.0938 0 -57.917 16.9775 -74.7451 44.3174l-18.4746 30.0156l60.0312 36.9512l18.4756 -30.0166c4.9043 -7.96973 10.6055 -10.7734 14.7129 -10.7734c8.16895 0 21.1504 13.0527 21.1504 35.2285c0 22.123 -12.9863 35.2295 -21.1504 35.2295h-35.2744
l0.167969 60.4902v9.41016c-32.3516 4.58594 -62.8691 14.6211 -92.4434 30.2529c-39.3516 20.7998 -74.4912 50.4082 -104.418 87.8066c-60.623 75.7578 -93.7617 175.758 -93.7617 281.582c0 105.826 33.1396 205.823 93.7598 281.583
c29.9268 37.3984 65.0654 67.0068 104.418 87.8066c41.252 21.8027 85.3574 32.9307 130.81 32.9307c52.4766 0 104.588 -15.416 150.706 -44.4365c43.9355 -27.6475 82.6719 -67.6953 112.288 -115.812l18.4746 -30.0166l-60.0332 -36.9492l-18.4717 30.0156
c-50.0059 81.2461 -124.063 126.706 -202.963 126.706c-140.488 0 -258.497 -146.803 -258.497 -331.829c0 -185.023 118.01 -331.828 258.497 -331.828c78.9053 0 152.834 45.2637 202.842 126.512z" />
    <glyph glyph-name="Egrave" unicode="&#xc8;" horiz-adv-x="635" 
d="M549.953 60.0234l0.09375 -70l-487.046 -0.667969v804.124c100.844 0.0556641 201.687 0.111328 302.53 0.166992l-170.597 130.65l5.52734 7.2168l37.0322 48.3555l180.586 -138.299l-36.6973 -47.9141l168.6 0.09375l0.0371094 -70l-417.019 -0.230469v-279.231
c10.291 2.44727 20.1543 3.48633 31.4004 3.48633h385.6v-70h-385.599c-14.7295 0 -22.8428 -3.51172 -26.4355 -7.43652c-3.69336 -4.03223 -4.88379 -11.7217 -4.9668 -14.2324v-296.654z" />
    <glyph glyph-name="Eacute" unicode="&#xc9;" horiz-adv-x="635" 
d="M549.953 60.0234l0.09375 -70l-487.046 -0.667969v804.124l168.679 0.09375l-36.752 47.9863l180.585 138.299l42.5586 -55.5723l-170.667 -130.704l302.578 0.167969l0.0371094 -70l-417.019 -0.230469v-279.231c10.291 2.44727 20.1543 3.48633 31.4004 3.48633h385.6
v-70h-385.599c-14.7295 0 -22.8428 -3.51172 -26.4355 -7.43652c-3.69336 -4.03223 -4.88379 -11.7217 -4.9668 -14.2324v-296.654z" />
    <glyph glyph-name="Ecircumflex" unicode="&#xca;" horiz-adv-x="635" 
d="M549.953 60.0234l0.0927734 -70l-487.046 -0.667969v804.124l76.709 0.0429688l-34.8125 50.0049l7.46094 5.19531l0.746094 0.518555l202.185 140.758l192.948 -147.776l-37.1582 -48.5166l78.9043 0.0439453l0.0371094 -70l-417.019 -0.230469v-279.231
c10.291 2.44727 20.1543 3.48633 31.4004 3.48633h385.6v-70h-385.599c-14.7295 0 -22.8428 -3.51172 -26.4355 -7.43652c-3.69336 -4.03223 -4.88379 -11.7217 -4.9668 -14.2324v-296.654zM456.471 793.698l-143.151 109.638l-157.724 -109.804
c100.292 0.0546875 200.583 0.110352 300.875 0.166016z" />
    <glyph glyph-name="Edieresis" unicode="&#xcb;" horiz-adv-x="635" 
d="M219.008 799.865c-19.3301 0 -35 15.6709 -35 35v13.71c0 19.3281 15.6689 35 35 35c19.3271 0 35 -15.6709 35 -35v-13.71c0 -19.3301 -15.6719 -35 -35 -35zM399.008 799.865c-19.3311 0 -35 15.6709 -35 35v13.71c0 19.3271 15.668 35 35 35
c19.3271 0 35 -15.6709 35 -35v-13.71c0 -19.3301 -15.6719 -35 -35 -35zM549.953 60.0234l0.0927734 -70.001l-487.046 -0.667969v804.124l486.982 0.271484l0.0371094 -70l-417.019 -0.230469v-279.231c10.291 2.44727 20.1543 3.48633 31.4004 3.48633h385.6v-70
h-385.599c-14.7295 0 -22.8428 -3.51172 -26.4355 -7.43652c-3.69336 -4.03223 -4.88379 -11.7217 -4.9668 -14.2324v-296.654z" />
    <glyph glyph-name="Igrave" unicode="&#xcc;" horiz-adv-x="287" 
d="M0 0l198.627 792.069l-172.646 132.218l42.5596 55.5732l180.585 -138.299l-42.5586 -55.5723s152.959 647.7 -206.566 -785.989zM77.5596 -9.98145v803.98h70v-803.98h-70z" />
    <glyph glyph-name="Iacute" unicode="&#xcd;" horiz-adv-x="284" 
d="M0 0l60.46 793.921l-36.4785 47.6318l180.584 138.3l42.5586 -55.5723l-180.585 -138.299s42.9199 651.379 -66.5391 -785.981zM100.559 -9.97949v803.98h70v-803.98h-70z" />
    <glyph glyph-name="Icircumflex" unicode="&#xce;" horiz-adv-x="474" 
d="M234.471 990.001l192.949 -147.776l-42.5654 -55.5732l-152.352 116.685l-168.428 -117.257l-39.9961 57.4492zM190.7 -9.97949v803.98h70v-803.98h-70z" />
    <glyph glyph-name="Idieresis" unicode="&#xcf;" horiz-adv-x="322" 
d="M63 883.575c19.3281 0 35 -15.6709 35 -35v-13.71c0 -19.3301 -15.6729 -35 -35 -35c-19.3301 0 -35 15.6699 -35 35v13.71c0 19.3271 15.6689 35 35 35zM243 883.575c19.3281 0 35 -15.6709 35 -35v-13.71c0 -19.3301 -15.6719 -35 -35 -35
c-19.3311 0 -35 15.6699 -35 35v13.71c0 19.3271 15.668 35 35 35zM117.557 -9.98047v803.98h70v-803.98h-70z" />
    <glyph glyph-name="Ntilde" unicode="&#xd1;" horiz-adv-x="666" 
d="M247.491 820.594l-14.7168 -31.3857l-63.3799 29.7129l14.8555 31.6904c15.8047 33.7129 35.7256 55.3174 61.9307 61.4775c36.125 8.49121 64.5068 -15.0967 86.0225 -32.167c12.2246 -9.69922 26.9346 -19.332 30.501 -19.875
c1.64453 0.84375 10.2451 6.69434 22.2158 32.2803l14.833 31.7012l63.4043 -29.6631l-14.834 -31.7031c-18.5947 -39.7422 -40.4248 -63.9395 -69.6572 -70.8242c-5.34375 -1.25586 -10.6172 -1.83691 -15.75 -1.83691c-31.0195 0 -55.7969 20.4678 -74.2188 35.083
c-8.72656 6.92285 -21.4551 16.2217 -26.6064 18.3584c-2.55273 -2.24121 -7.68945 -8.1084 -14.5996 -22.8486zM501.115 794.002h68.4414v-803.98h-60.7061l-377.409 654.214v-654.214h-68.4404v803.98h61.0576l377.057 -653.671v653.671z" />
    <glyph glyph-name="Ograve" unicode="&#xd2;" 
d="M266.323 924.303l42.5586 55.5723l180.584 -138.299l-42.5576 -55.5732zM612.386 673.322c60.4111 -75.6973 93.4326 -175.611 93.4326 -281.341c0 -105.728 -33.0176 -205.642 -93.4297 -281.34c-29.8242 -37.3701 -64.8457 -66.96 -104.069 -87.748
c-41.2129 -21.8428 -85.0283 -32.7529 -130.409 -32.9209c-47.1582 0.174805 -89.1787 11.0693 -130.412 32.9219c-39.2246 20.7891 -74.2451 50.3779 -104.07 87.749c-60.4102 75.6982 -93.4277 175.61 -93.4277 281.339c0 105.729 33.0176 205.642 93.4268 281.341
c29.8242 37.3701 64.8467 66.9609 104.071 87.748c41.1211 21.7959 85.0957 32.9189 130.41 32.9189c45.3135 0 89.2881 -11.125 130.409 -32.9199c39.2236 -20.7881 74.2441 -50.3779 104.068 -87.748zM377.91 60.124c140.056 0 257.76 146.793 257.76 331.858
c0 185.064 -117.704 331.857 -257.76 331.857s-257.76 -146.792 -257.76 -331.857c0 -185.066 117.704 -331.858 257.76 -331.858z" />
    <glyph glyph-name="Oacute" unicode="&#xd3;" 
d="M266.316 841.565l180.585 138.301l42.5576 -55.5732l-180.585 -138.299zM612.387 673.322c60.4111 -75.6973 93.4316 -175.611 93.4316 -281.341c0 -105.728 -33.0176 -205.642 -93.4297 -281.34c-29.8242 -37.3701 -64.8457 -66.96 -104.069 -87.748
c-41.2129 -21.8428 -85.0283 -32.7529 -130.409 -32.9209c-47.1582 0.174805 -89.1787 11.0693 -130.412 32.9219c-39.2246 20.7891 -74.2451 50.3779 -104.07 87.749c-60.4102 75.6982 -93.4277 175.61 -93.4277 281.339c0 105.729 33.0176 205.642 93.4268 281.341
c29.8242 37.3701 64.8467 66.9609 104.071 87.748c41.1211 21.7959 85.0957 32.9189 130.41 32.9189c45.3135 0 89.2881 -11.125 130.409 -32.9199c39.2236 -20.7881 74.2451 -50.3779 104.069 -87.748zM377.91 60.124c140.056 0 257.76 146.793 257.76 331.858
c0 185.064 -117.704 331.857 -257.76 331.857s-257.76 -146.792 -257.76 -331.857c0 -185.066 117.704 -331.858 257.76 -331.858z" />
    <glyph glyph-name="Ocircumflex" unicode="&#xd4;" 
d="M384.71 903.336l-168.427 -117.257l-39.9961 57.4492l7.46094 5.19531c0.821289 0.571289 -0.0732422 -0.0517578 0.74707 0.519531l202.185 140.758l192.949 -147.776l-42.5645 -55.5732zM612.386 673.322c60.4111 -75.6973 93.4326 -175.611 93.4326 -281.341
c0 -105.728 -33.0176 -205.642 -93.4297 -281.34c-29.8242 -37.3701 -64.8457 -66.96 -104.069 -87.748c-41.2129 -21.8428 -85.0283 -32.7529 -130.409 -32.9209c-47.1582 0.174805 -89.1787 11.0693 -130.412 32.9219c-39.2246 20.7891 -74.2451 50.3779 -104.07 87.749
c-60.4102 75.6982 -93.4277 175.61 -93.4277 281.339c0 105.729 33.0176 205.642 93.4268 281.341c29.8242 37.3701 64.8467 66.9609 104.071 87.748c41.1211 21.7959 85.0957 32.9189 130.41 32.9189c45.3135 0 89.2881 -11.125 130.409 -32.9199
c39.2236 -20.7881 74.2441 -50.3779 104.068 -87.748zM377.91 60.124c140.056 0 257.76 146.793 257.76 331.858c0 185.064 -117.704 331.857 -257.76 331.857s-257.76 -146.792 -257.76 -331.857c0 -185.066 117.704 -331.858 257.76 -331.858z" />
    <glyph glyph-name="Otilde" unicode="&#xd5;" 
d="M377.908 60.125c140.056 0 257.76 146.793 257.76 331.858c0 185.064 -117.704 331.857 -257.76 331.857s-257.76 -146.792 -257.76 -331.857c0 -185.066 117.704 -331.858 257.76 -331.858zM612.386 673.322c60.4111 -75.6973 93.4346 -175.609 93.4346 -281.339
c0 -105.728 -33.0176 -205.642 -93.4297 -281.34c-29.8242 -37.3701 -64.8457 -66.96 -104.069 -87.748c-41.2129 -21.8428 -85.0283 -32.7529 -130.409 -32.9209c-47.1582 0.174805 -89.1787 11.0693 -130.412 32.9219c-39.2246 20.7891 -74.2461 50.3779 -104.071 87.749
c-60.4102 75.6982 -93.4277 175.61 -93.4277 281.339c0 105.729 33.0176 205.642 93.4268 281.341c29.8242 37.3701 64.8467 66.9609 104.071 87.748c41.1211 21.7959 85.0957 32.9189 130.41 32.9189c9.15918 0 18.2627 -0.454102 27.2998 -1.36035
c-22.1504 5.99023 -40.4609 21.0146 -54.8789 32.4541c-8.72656 6.92285 -21.4561 16.2217 -26.6074 18.3584c-2.55273 -2.24121 -7.63965 -7.99902 -14.4736 -22.5781l-14.8428 -31.6572l-63.3789 29.7119l14.8545 31.6904
c15.8047 33.7148 35.7246 55.3174 61.9307 61.4795c36.126 8.48926 64.5068 -15.0977 86.0225 -32.168c12.2246 -9.69922 26.9346 -19.332 30.501 -19.875c1.64551 0.84375 10.2461 6.69434 22.2168 32.2803l14.833 31.7002l63.4043 -29.6631l-14.834 -31.7031
c-18.5947 -39.7422 -40.4248 -63.9395 -69.6572 -70.8242c-5.34375 -1.25586 -10.6172 -1.83691 -15.75 -1.83691h-0.0722656c28.8838 -5.00293 56.9717 -14.6895 83.8408 -28.9307c39.2236 -20.7881 74.2441 -50.3779 104.068 -87.748z" />
    <glyph glyph-name="Odieresis" unicode="&#xd6;" 
d="M287.908 799.865c-19.3301 0 -35 15.6709 -35 35v13.71c0 19.3271 15.668 35 35 35c19.3281 0 35 -15.6709 35 -35v-13.71c0 -19.3301 -15.6719 -35 -35 -35zM467.907 799.865c-19.3291 0 -35 15.6709 -35 35v13.71c0 19.3271 15.6689 35 35 35
c19.3291 0 35 -15.6719 35 -35v-13.71c0 -19.3301 -15.6709 -35 -35 -35zM612.386 673.322c60.4111 -75.6973 93.4326 -175.611 93.4326 -281.341c0 -105.728 -33.0176 -205.642 -93.4297 -281.34c-29.8242 -37.3701 -64.8457 -66.96 -104.069 -87.748
c-41.2129 -21.8428 -85.0283 -32.7529 -130.409 -32.9209c-47.1582 0.174805 -89.1787 11.0693 -130.412 32.9219c-39.2246 20.7891 -74.2451 50.3779 -104.07 87.749c-60.4102 75.6982 -93.4277 175.61 -93.4277 281.339c0 105.729 33.0176 205.642 93.4268 281.341
c29.8242 37.3701 64.8467 66.9609 104.071 87.748c41.1211 21.7959 85.0957 32.9189 130.41 32.9189c45.3135 0 89.2881 -11.125 130.409 -32.9199c39.2236 -20.7881 74.2441 -50.3779 104.068 -87.748zM377.91 60.124c140.056 0 257.76 146.793 257.76 331.858
c0 185.064 -117.704 331.857 -257.76 331.857s-257.76 -146.792 -257.76 -331.857c0 -185.066 117.704 -331.858 257.76 -331.858z" />
    <glyph glyph-name="multiply" unicode="&#xd7;" horiz-adv-x="171" 
 />
    <glyph glyph-name="Oslash" unicode="&#xd8;" horiz-adv-x="802" 
d="M723.358 794l-98.1768 -132.012c54.8721 -74.3408 84.6201 -169.393 84.6201 -269.877c0 -105.755 -33.0283 -205.695 -93.4551 -281.412c-29.832 -37.3799 -64.8623 -66.9795 -104.098 -87.7715c-41.1318 -21.7998 -85.1152 -32.9287 -130.441 -32.9287
c-45.3271 0 -89.3125 11.1289 -130.443 32.9287c-23.6934 12.5547 -47.5156 29.7949 -66.7646 47.5439l-60.041 -80.4502h-87.4922l99.9854 134.062c-54.0469 74.1533 -83.2402 168.38 -83.2402 268.025c0 105.757 33.0273 205.694 93.4541 281.411
c29.832 37.3809 64.8613 66.9785 104.099 87.7725c41.1328 21.7979 85.1172 32.9268 130.444 32.9268c45.3242 0 89.3105 -11.126 130.441 -32.9268c23.334 -12.3691 45.8086 -28.4922 65.1055 -46.042l58.5273 78.75h87.4756zM123.979 392.109
c0 -79.1533 22.4023 -152.802 57.4365 -208.479l353.785 475.002c-43.4336 41.5117 -96.2285 65.4248 -153.391 65.4248c-140.096 0 -257.831 -146.832 -257.831 -331.948zM639.638 392.11c0 80.0947 -22.8662 154.383 -58.7012 210.469l-354.119 -475.448
c43.7783 -42.5 97.124 -66.9707 154.99 -66.9707c140.094 0 257.83 146.833 257.83 331.95z" />
    <glyph glyph-name="Ugrave" unicode="&#xd9;" horiz-adv-x="667" 
d="M205.437 924.299l42.5586 55.5723l180.585 -138.299l-42.5586 -55.5713zM504.041 794h70v-546.398c0 -68.6035 -26.7695 -133.231 -75.2812 -181.74c-48.5078 -48.5117 -113.137 -75.2812 -181.741 -75.2812c-68.6035 0 -133.229 26.7705 -181.74 75.2803
c-48.5117 48.5117 -75.2803 113.138 -75.2803 181.741v546.398h70v-546.398c0 -103.109 83.9111 -187.021 187.021 -187.021s187.021 83.9111 187.021 187.021v546.398z" />
    <glyph glyph-name="Uacute" unicode="&#xda;" horiz-adv-x="667" 
d="M205.432 841.56l180.584 138.299l42.5596 -55.5723l-180.585 -138.299zM504.042 793.999l69.999 0.000976562v-546.398c0 -68.6045 -26.7695 -133.232 -75.2812 -181.741c-48.5078 -48.5117 -113.137 -75.2812 -181.74 -75.2812s-133.229 26.7705 -181.74 75.2803
c-48.5117 48.5117 -75.2803 113.138 -75.2803 181.741v546.398h70v-546.398c0 -103.109 83.9111 -187.021 187.021 -187.021s187.021 83.9111 187.021 187.021v546.398z" />
    <glyph glyph-name="Ucircumflex" unicode="&#xdb;" horiz-adv-x="667" 
d="M323.823 903.336l-168.425 -117.256l-39.9971 57.4492l210.392 146.473l192.95 -147.777l-42.5645 -55.5732zM504.043 794.001l70 0.000976562v-546.398c0 -68.6045 -26.7695 -133.232 -75.2812 -181.741c-48.5078 -48.5117 -113.137 -75.2812 -181.741 -75.2812
c-68.6035 0 -133.229 26.7705 -181.74 75.2803c-48.5117 48.5117 -75.2803 113.138 -75.2803 181.741v546.398h70v-546.398c0 -103.109 83.9111 -187.021 187.021 -187.021s187.021 83.9111 187.021 187.021v546.398z" />
    <glyph glyph-name="Udieresis" unicode="&#xdc;" horiz-adv-x="667" 
d="M227.021 799.865c-19.3291 0 -35 15.6709 -35 35v13.71c0 19.3281 15.6699 35 35 35c19.3281 0 35 -15.6709 35 -35v-13.71c0 -19.3301 -15.6709 -35 -35 -35zM407.021 799.865c-19.3301 0 -35 15.6709 -35 35v13.71c0 19.3281 15.6689 35 35 35
c19.3281 0 35 -15.6709 35 -35v-13.71c0 -19.3301 -15.6709 -35 -35 -35zM504.043 794h70v-546.398c0 -68.6035 -26.7695 -133.231 -75.2812 -181.74c-48.5078 -48.5117 -113.137 -75.2812 -181.741 -75.2812c-68.6035 0 -133.229 26.7705 -181.74 75.2803
c-48.5117 48.5117 -75.2803 113.138 -75.2803 181.741v546.398h70v-546.398c0 -103.109 83.9111 -187.021 187.021 -187.021s187.021 83.9111 187.021 187.021v546.398z" />
    <glyph glyph-name="germandbls" unicode="&#xdf;" horiz-adv-x="624" 
d="M152.502 57.4736l57.3418 39.2656l5.32812 -6.94336c0.604492 -0.717773 6.10547 -7.0625 19.0752 -13.6709c13.8066 -7.03613 39.3652 -15.9404 80.9863 -15.9404c82.6143 0 158.795 76.1816 158.795 158.797c0 66.4854 -24.916 87.9248 -43.2402 99.5732
c-26.9238 17.1152 -64.5527 22.3477 -99.2324 26.8223c-21.75 2.80762 -41.1299 5.18359 -58.0723 11.3135c-36.7988 13.3105 -43.6885 41.1465 -43.6885 56.4209c0 16.9512 6.56152 41.4355 34.46 58.1074c15.0527 8.99609 32.3828 13.9072 49.873 19.0078
c49.2334 14.3584 88.0195 24.6455 88.0195 95.2373c0 67.8262 -34.4189 137.354 -133.798 137.354c-84.3848 0 -137.352 -52.9814 -137.352 -137.342l0.65625 -595.512l-70.001 -0.0751953l-0.655273 595.549c0 56.4717 19.082 108.381 54.2842 145.858
c37.9492 40.4082 91.2871 61.5186 153.067 61.5186c61.7217 0 114.604 -21.2305 151.655 -61.9121c33.8701 -37.1885 52.1416 -88.9473 52.1416 -145.439c0 -51.8555 -16.7109 -93.5938 -50.4795 -121.768c-28.0908 -23.4395 -62.0195 -33.1113 -87.9375 -40.6699
c-5.71875 -1.66797 -12.5068 -3.69043 -16.5596 -4.99121c7.03613 -1.12891 15.0098 -2.16016 23.3447 -3.23438c37.7314 -4.86914 86.4746 -10.8818 127.832 -37.1719c50.5459 -32.1338 75.6846 -86.6562 75.6846 -158.647c0 -30.9219 -6.61523 -61.2158 -19.584 -89.8691
c-12.1758 -26.8965 -29.4082 -51.2422 -51.124 -72.2959c-43.5762 -42.2451 -101.026 -66.6318 -158.087 -66.6318c-111.64 0 -151.738 51.2363 -157.082 59.0381z" />
    <glyph glyph-name="agrave" unicode="&#xe0;" horiz-adv-x="559" 
d="M474.476 405.358l-0.000976562 -25.0801c0 -1.48438 -0.0283203 -3.22266 -0.0634766 -4.44043v-206.449c0 -49.6826 -24.0088 -95.7617 -66.459 -129.479c-40.6787 -32.3135 -94.0332 -49.8652 -150.245 -49.8652c-56.2148 0 -109.567 17.5518 -150.247 49.8643
c-42.4521 33.7188 -66.46 79.7949 -66.46 129.479c0 49.6836 24.0088 95.7617 66.459 129.48c40.6777 32.3105 94.042 49.8643 150.241 49.8643l121.555 0.0878906l1.58105 -0.0693359c2.54883 -0.0654297 11.1514 0.402344 16.1445 5.1123
c3.54492 3.34473 6.82422 10.7168 7.25977 23.0674v32.6943c0 58.3623 -59.9961 109.173 -137.857 109.173c-49.6289 0 -93.9141 -20.6562 -118.82 -54.043l-20.9785 -28.1211l-56.2451 41.959l20.9795 28.1221c38.6836 51.8525 104.22 82.2549 175.065 82.2549
c54.2227 0 105.649 -17.7695 144.762 -50.3955c40.4893 -33.7744 63.2666 -79.6719 63.2666 -128.95c0 -1.73535 0.0634766 -0.768555 0.0634766 -4.2666zM404.24 169.39l0.000976562 111.806c-12.8662 -2.95996 -22.2988 -2.72363 -26.2246 -2.54492l-120.292 -0.0869141
c-40.8877 0 -78.7471 -12.5 -106.622 -34.6406c-26.29 -20.8818 -39.9316 -47.3301 -39.9316 -74.5332s13.6416 -53.6523 39.9316 -74.5312c27.876 -22.1416 65.7344 -34.6416 106.604 -34.6416c40.8711 0 78.7256 12.499 106.603 34.6416
c26.2881 20.8789 39.9307 47.3281 39.9307 74.5312zM146.164 742.461l42.5586 55.5732l180.585 -138.299l-42.5586 -55.5723z" />
    <glyph glyph-name="aacute" unicode="&#xe1;" horiz-adv-x="559" 
d="M474.476 405.358l-0.000976562 -25.0801c0 -1.48438 -0.0283203 -3.22266 -0.0634766 -4.44043v-206.449c0 -49.6826 -24.0088 -95.7617 -66.459 -129.479c-40.6787 -32.3135 -94.0332 -49.8652 -150.245 -49.8652c-56.2148 0 -109.567 17.5518 -150.247 49.8643
c-42.4521 33.7188 -66.46 79.7949 -66.46 129.479c0 49.6836 24.0088 95.7617 66.459 129.48c40.6777 32.3105 94.042 49.8643 150.241 49.8643l121.555 0.0878906l1.58105 -0.0693359c2.54883 -0.0654297 11.1514 0.402344 16.1445 5.1123
c3.54492 3.34473 6.82422 10.7168 7.25977 23.0674v32.6943c0 58.3623 -59.9961 109.173 -137.857 109.173c-49.6289 0 -93.9141 -20.6562 -118.82 -54.043l-20.9785 -28.1211l-56.2451 41.959l20.9795 28.1221c38.6836 51.8525 104.22 82.2549 175.065 82.2549
c54.2227 0 105.649 -17.7695 144.762 -50.3955c40.4893 -33.7744 63.2666 -79.6719 63.2666 -128.95c0 -1.73535 0.0634766 -0.768555 0.0634766 -4.2666zM404.24 169.39l0.000976562 111.806c-12.8662 -2.95996 -22.2988 -2.72363 -26.2246 -2.54492l-120.292 -0.0869141
c-40.8877 0 -78.7471 -12.5 -106.622 -34.6406c-26.29 -20.8818 -39.9316 -47.3301 -39.9316 -74.5332s13.6416 -53.6523 39.9316 -74.5312c27.876 -22.1416 65.7344 -34.6416 106.604 -34.6416c40.8711 0 78.7256 12.499 106.603 34.6416
c26.2881 20.8789 39.9307 47.3281 39.9307 74.5312zM146.15 659.73l180.584 138.299l42.5576 -55.5713l-180.584 -138.299z" />
    <glyph glyph-name="acircumflex" unicode="&#xe2;" horiz-adv-x="569" 
d="M283.31 717.468l-113.635 -76.4062l-39.9111 57.3271l153.254 106.455l5.2334 -3.62012l0.748047 -0.516602l147.868 -102.303l-39.9238 -57.3408zM410.242 169.382l-0.000976562 111.806c-12.8672 -2.95996 -22.2988 -2.72363 -26.2246 -2.54492l-120.292 -0.0869141
c-40.8877 0 -78.7471 -12.501 -106.623 -34.6426c-26.2891 -20.8799 -39.9307 -47.3281 -39.9307 -74.5312s13.6416 -53.6523 39.9316 -74.5312c27.875 -22.1426 65.7344 -34.6416 106.604 -34.6416c40.8711 0 78.7266 12.499 106.604 34.6416
c26.2881 20.8779 39.9316 47.3271 39.9316 74.5312zM480.475 405.356l-0.00195312 -25.083c0 -1.4834 -0.0283203 -3.22266 -0.0634766 -4.44043v-206.449c0 -49.6826 -24.0088 -95.7617 -66.459 -129.479c-40.6787 -32.3135 -94.0332 -49.8652 -150.245 -49.8652
c-56.2148 0 -109.567 17.5518 -150.247 49.8643c-42.4512 33.7188 -66.46 79.7939 -66.46 129.479c0 49.6836 24.0088 95.7627 66.46 129.481c40.6777 32.3105 94.042 49.8643 150.241 49.8643l121.555 0.0878906l1.63672 -0.0712891
c2.43945 -0.0615234 11.1074 0.415039 16.0898 5.11523c3.54492 3.34473 6.82422 10.7158 7.25977 23.0674v32.6943c0 58.3623 -59.9961 109.173 -137.857 109.173c-49.6289 0 -93.9141 -20.6562 -118.82 -54.043l-20.9805 -28.1201l-56.2441 41.959l20.9795 28.1211
c38.6846 51.8525 104.219 82.2549 175.065 82.2549c54.2227 0 105.649 -17.7686 144.762 -50.3945c40.4893 -33.7744 63.2666 -79.6709 63.2666 -128.949c0 -1.73633 0.0634766 -0.768555 0.0634766 -4.26758z" />
    <glyph glyph-name="atilde" unicode="&#xe3;" horiz-adv-x="559" 
d="M474.476 405.358l-0.000976562 -25.0801c0 -1.48438 -0.0283203 -3.22266 -0.0634766 -4.44043v-206.449c0 -49.6826 -24.0088 -95.7617 -66.459 -129.479c-40.6787 -32.3135 -94.0332 -49.8652 -150.245 -49.8652c-56.2148 0 -109.567 17.5518 -150.247 49.8643
c-42.4521 33.7188 -66.46 79.7949 -66.46 129.479c0 49.6836 24.0088 95.7617 66.459 129.48c40.6777 32.3105 94.042 49.8643 150.241 49.8643l121.555 0.0878906l1.58105 -0.0693359c2.54883 -0.0654297 11.1514 0.402344 16.1445 5.1123
c3.54492 3.34473 6.82422 10.7168 7.25977 23.0674v32.6943c0 58.3623 -59.9961 109.173 -137.857 109.173c-49.6289 0 -93.9141 -20.6562 -118.82 -54.043l-20.9785 -28.1211l-56.2451 41.959l20.9795 28.1221c38.6836 51.8525 104.22 82.2549 175.065 82.2549
c54.2227 0 105.649 -17.7695 144.762 -50.3955c40.4893 -33.7744 63.2666 -79.6719 63.2666 -128.95c0 -1.73535 0.0634766 -0.768555 0.0634766 -4.2666zM404.24 169.39l0.000976562 111.806c-12.8662 -2.95996 -22.2988 -2.72363 -26.2246 -2.54492l-120.292 -0.0869141
c-40.8877 0 -78.7471 -12.5 -106.622 -34.6406c-26.29 -20.8818 -39.9316 -47.3301 -39.9316 -74.5332s13.6416 -53.6523 39.9316 -74.5312c27.876 -22.1416 65.7344 -34.6416 106.604 -34.6416c40.8711 0 78.7256 12.499 106.603 34.6416
c26.2881 20.8789 39.9307 47.3281 39.9307 74.5312zM195.548 697.122l-15.0498 -32.0996l-63.3779 29.7139l14.8525 31.6924c15.8037 33.7139 35.7256 55.3174 61.9287 61.4785c36.125 8.49316 64.5098 -15.0986 86.0254 -32.168
c12.2227 -9.69922 26.9326 -19.332 30.498 -19.875c1.64746 0.844727 10.248 6.69434 22.2188 32.2803l14.833 31.7012l63.4053 -29.666l-14.835 -31.7021c-18.5957 -39.7422 -40.4258 -63.9414 -69.6533 -70.8232c-5.34668 -1.25781 -10.6211 -1.83789 -15.7529 -1.83789
c-31.0205 0 -55.7969 20.4668 -74.2197 35.083c-8.72754 6.9248 -21.4492 16.2207 -26.6064 18.3594c-2.55371 -2.24316 -7.44141 -7.57812 -14.2666 -22.1367z" />
    <glyph glyph-name="adieresis" unicode="&#xe4;" horiz-adv-x="559" 
d="M474.476 405.358l-0.000976562 -25.0801c0 -1.48438 -0.0283203 -3.22266 -0.0634766 -4.44043v-206.449c0 -49.6826 -24.0088 -95.7617 -66.459 -129.479c-40.6787 -32.3135 -94.0332 -49.8652 -150.245 -49.8652c-56.2148 0 -109.567 17.5518 -150.247 49.8643
c-42.4521 33.7188 -66.46 79.7949 -66.46 129.479c0 49.6836 24.0088 95.7617 66.459 129.48c40.6777 32.3105 94.042 49.8643 150.241 49.8643l121.555 0.0878906l1.58105 -0.0693359c2.54883 -0.0654297 11.1514 0.402344 16.1445 5.1123
c3.54492 3.34473 6.82422 10.7168 7.25977 23.0674v32.6943c0 58.3623 -59.9961 109.173 -137.857 109.173c-49.6289 0 -93.9141 -20.6562 -118.82 -54.043l-20.9785 -28.1211l-56.2451 41.959l20.9795 28.1221c38.6836 51.8525 104.22 82.2549 175.065 82.2549
c54.2227 0 105.649 -17.7695 144.762 -50.3955c40.4893 -33.7744 63.2666 -79.6719 63.2666 -128.95c0 -1.73535 0.0634766 -0.768555 0.0634766 -4.2666zM404.24 169.39l0.000976562 111.806c-12.8662 -2.95996 -22.2988 -2.72363 -26.2246 -2.54492l-120.292 -0.0869141
c-40.8877 0 -78.7471 -12.5 -106.622 -34.6406c-26.29 -20.8818 -39.9316 -47.3301 -39.9316 -74.5332s13.6416 -53.6523 39.9316 -74.5312c27.876 -22.1416 65.7344 -34.6416 106.604 -34.6416c40.8711 0 78.7256 12.499 106.603 34.6416
c26.2881 20.8789 39.9307 47.3281 39.9307 74.5312zM179.848 663.722c-19.3301 0 -35 15.6699 -35 35v13.709c0 19.3281 15.6689 35 35 35c19.3271 0 35 -15.6709 35 -35v-13.709c0 -19.3311 -15.6719 -35 -35 -35zM359.848 663.722c-19.3301 0 -35 15.6699 -35 35v13.709
c0 19.3281 15.6689 35 35 35c19.3271 0 35 -15.6709 35 -35v-13.709c0 -19.3311 -15.6719 -35 -35 -35z" />
    <glyph glyph-name="aring" unicode="&#xe5;" horiz-adv-x="559" 
d="M474.476 405.358l-0.000976562 -25.0801c0 -1.48438 -0.0283203 -3.22266 -0.0634766 -4.44043v-206.449c0 -49.6826 -24.0088 -95.7617 -66.459 -129.479c-40.6787 -32.3135 -94.0332 -49.8652 -150.245 -49.8652c-56.2148 0 -109.567 17.5518 -150.247 49.8643
c-42.4521 33.7188 -66.46 79.7949 -66.46 129.479c0 49.6836 24.0088 95.7617 66.459 129.48c40.6777 32.3105 94.042 49.8643 150.241 49.8643l121.555 0.0878906l1.58105 -0.0693359c2.54883 -0.0654297 11.1514 0.402344 16.1445 5.1123
c3.54492 3.34473 6.82422 10.7168 7.25977 23.0674v32.6943c0 58.3623 -59.9961 109.173 -137.857 109.173c-49.6289 0 -93.9141 -20.6562 -118.82 -54.043l-20.9785 -28.1211l-56.2451 41.959l20.9795 28.1221c38.6836 51.8525 104.22 82.2549 175.065 82.2549
c54.2227 0 105.649 -17.7695 144.762 -50.3955c40.4893 -33.7744 63.2666 -79.6719 63.2666 -128.95c0 -1.73535 0.0634766 -0.768555 0.0634766 -4.2666zM404.24 169.39l0.000976562 111.806c-12.8662 -2.95996 -22.2988 -2.72363 -26.2246 -2.54492l-120.292 -0.0869141
c-40.8877 0 -78.7471 -12.5 -106.622 -34.6406c-26.29 -20.8818 -39.9316 -47.3301 -39.9316 -74.5332s13.6416 -53.6523 39.9316 -74.5312c27.876 -22.1416 65.7344 -34.6416 106.604 -34.6416c40.8711 0 78.7256 12.499 106.603 34.6416
c26.2881 20.8789 39.9307 47.3281 39.9307 74.5312zM270.807 602.931c-51.8457 0 -94 42.1523 -94 94c0 51.8457 42.1533 94 94 94c51.8457 0 94 -42.1533 94 -94c0 -51.8457 -42.1533 -94 -94 -94zM270.807 720.931c-13.2197 0 -24 -10.7803 -24 -24s10.7803 -24 24 -24
s24 10.7803 24 24s-10.7803 24 -24 24z" />
    <glyph glyph-name="ae" unicode="&#xe6;" horiz-adv-x="942" 
d="M365.34 94.876c26.2666 20.8604 39.9014 47.416 39.9033 74.3926c0 0 -1.88574 79.915 -2.60547 111.35c-11.0127 -2.2666 -20.1748 -2.12891 -23.6221 -1.97266l-120.29 -0.0869141c-40.8877 0 -78.7471 -12.501 -106.623 -34.6416
c-26.2891 -20.8799 -39.9307 -47.3271 -39.9307 -74.5322c0 -27.2021 13.6426 -53.6514 39.9316 -74.5312c27.877 -22.1426 65.7344 -34.6416 106.604 -34.6416c40.8711 0 78.748 12.5166 106.632 34.6641zM654.283 518.969
c-83.4248 -0.12207 -155.236 -72.2939 -175.994 -170.9c9.25293 1.36914 13.5312 1.13574 16.6738 1.00195h135.549c48.75 0 87.8887 11.4795 113.688 31.7676c20.6572 16.2441 31.2031 36.7617 31.2031 57.8604c0 36.2158 -34.2959 80.1699 -121.119 80.2705z
M803.153 142.57l56.1025 -41.8564l-20.9287 -28.0527c-28.0947 -37.6592 -83.3809 -81.9873 -183.809 -81.9873c-69.335 0 -133.773 32.3584 -181.136 90.1895c-5.07227 6.19336 -10.0303 12.8496 -14.501 19.3008c-12.0176 -23.6973 -28.0986 -42.9189 -49.9268 -60.2568
c-40.6797 -32.3115 -94.0332 -49.8643 -150.246 -49.8643s-109.566 17.5508 -150.247 49.8643c-42.4512 33.7178 -66.459 79.7959 -66.459 129.479c0 49.6826 24.0088 95.7627 66.46 129.479c40.7178 32.3428 93.8613 49.8652 150.452 49.8652
c0.545898 -0.0224609 124.298 -2.39844 139.211 5.27441c3.69824 3.80371 6.69727 10.9863 7.11816 22.9258v32.6943c0 58.3623 -59.9971 109.173 -137.857 109.173c-49.6299 0 -93.9131 -20.6553 -118.82 -54.043l-20.9785 -28.1211l-56.2451 41.959l20.9795 28.1221
c38.6846 51.8525 104.219 82.2549 175.065 82.2549c54.2207 0 105.649 -17.7676 144.762 -50.3945c20.5088 -17.1055 36.5303 -37.71 47.0869 -59.1973c5.12207 7.39551 9.4209 13.0781 14.6631 19.4521c22.918 27.8721 49.8711 49.9717 80.0664 65.5029
c31.6416 16.2793 64.4424 24.4932 100.269 24.6348c56.3955 -0.143555 103.763 -14.7949 138.938 -43.7041c33.4111 -27.459 52.2305 -65.4307 52.2305 -106.566c0 -43.084 -21.416 -84.1719 -57.9316 -112.886c-39.3652 -30.9551 -93.8232 -46.7422 -156.955 -46.7422
c-0.180664 0 -135.489 -0.000976562 -139.06 0.0859375c-1.4502 -0.00390625 -6.1084 -0.506836 -8.81934 -3.16992c-10.2783 -10.0957 -7.40234 -27.166 -7.40234 -27.166l0.0429688 -0.220703l0.0322266 -0.220703c15.7998 -108.152 91.5039 -187.706 179.21 -187.706
c58.418 0 101.795 19.1162 127.703 53.8447z" />
    <glyph glyph-name="ccedilla" unicode="&#xe7;" horiz-adv-x="560" 
d="M418.557 114.416l20.416 27.373l56.1084 -41.8545l-20.9277 -28.0537c-33.4121 -44.79 -87.6953 -73.3506 -145.827 -80.2959v-6.37305c13.0127 -6.36426 22.8027 -14.3682 31.6797 -25.4629c15.6279 -19.5283 24.0312 -44.8145 24.0312 -71.2168
c0 -26.4043 -8.40332 -51.6875 -24.0312 -71.2168c-16.8721 -21.084 -41.1719 -33.5732 -66.8164 -33.5732c-29.8379 0 -57.4199 16.834 -74.0996 43.9326l-18.3447 29.8057l59.6133 36.6924l18.3467 -29.8066c4.84473 -7.875 10.4629 -10.624 14.4863 -10.624
c8.00586 0 20.8467 12.8662 20.8467 34.7891c0 21.8848 -12.8457 34.7891 -20.8467 34.7891h-35.0205l0.140625 70.6494c-21.4854 4.30859 -39.6445 10.7705 -58.6611 20.5527c-30.1963 15.5322 -57.1475 37.6328 -80.0664 65.5039
c-46.3057 56.3105 -71.585 130.551 -71.585 209.012c0 80.043 25.1113 153.277 71.582 209.792c22.9189 27.8721 49.8701 49.9717 80.0664 65.5039c31.7031 16.3057 64.7393 24.543 100.479 24.6338c70.5879 -0.163086 135.558 -30.4229 174.027 -81.9883l20.9268 -28.0557
l-56.1074 -41.8564l-20.9287 28.0547c-24.7637 33.1973 -68.7988 53.7686 -118.086 53.8438c-98.5039 -0.15625 -181.96 -100.401 -181.96 -229.93c0 -128.108 83.4834 -228.991 181.93 -229.149c49.3418 0.0751953 93.7178 21.1357 118.628 54.5293z" />
    <glyph glyph-name="egrave" unicode="&#xe8;" horiz-adv-x="569" 
d="M447.835 142.568l56.1064 -41.8564l-20.9287 -28.0537c-28.0947 -37.6602 -83.3818 -81.9873 -183.809 -81.9873c-69.3359 0 -133.774 32.3604 -181.137 90.1895c-32.248 39.375 -54.1338 87.3877 -64.458 140.037l-3.47363 21.1807
c-2.11426 15.9561 -3.13672 31.5479 -3.13672 47.7383c0 78.4619 25.2803 152.7 71.583 209.015c22.9189 27.873 49.8701 49.9717 80.0664 65.5029c31.6426 16.2793 64.4424 24.4932 100.269 24.6348c56.3945 -0.143555 103.763 -14.7939 138.939 -43.7041
c33.4111 -27.46 52.2314 -65.4307 52.2314 -106.566c0 -43.084 -21.417 -84.1709 -57.9336 -112.886c-39.3652 -30.9551 -93.8232 -46.7422 -156.955 -46.7422c-0.21582 0 -135.419 -0.00292969 -139.114 0.0869141
c-1.72559 0.00878906 -6.16016 -0.462891 -8.55664 -2.95996c-10.7324 -11.1846 -7.95215 -25.6514 -7.77832 -26.4746l0.113281 -0.477539l0.0634766 -0.438477c15.6631 -108.365 91.4541 -188.135 179.278 -188.135c58.416 0 101.795 19.1162 127.703 53.8428z
M298.968 518.967c-83.4268 -0.12207 -155.235 -72.2939 -175.994 -170.9c9.25391 1.37012 13.5312 1.13574 16.6738 1.00195h135.547c48.749 0 87.8887 11.4805 113.688 31.7676c20.6572 16.2441 31.2031 36.7627 31.2031 57.8604
c0.00195312 36.2158 -34.2939 80.1699 -121.117 80.2705zM161.901 742.457l42.5576 55.5723l180.585 -138.299l-42.5586 -55.5723z" />
    <glyph glyph-name="eacute" unicode="&#xe9;" horiz-adv-x="569" 
d="M447.835 142.568l56.1064 -41.8564l-20.9287 -28.0537c-28.0947 -37.6602 -83.3818 -81.9873 -183.809 -81.9873c-69.3359 0 -133.774 32.3604 -181.137 90.1895c-32.248 39.375 -54.1338 87.3877 -64.458 140.037l-3.47363 21.1807
c-2.11426 15.9561 -3.13672 31.5479 -3.13672 47.7383c0 78.4619 25.2803 152.7 71.583 209.015c22.9189 27.873 49.8701 49.9717 80.0664 65.5029c31.6426 16.2793 64.4424 24.4932 100.269 24.6348c56.3945 -0.143555 103.763 -14.7939 138.939 -43.7041
c33.4111 -27.46 52.2314 -65.4307 52.2314 -106.566c0 -43.084 -21.417 -84.1709 -57.9336 -112.886c-39.3652 -30.9551 -93.8232 -46.7422 -156.955 -46.7422c-0.21582 0 -135.419 -0.00292969 -139.114 0.0869141
c-1.72559 0.00878906 -6.16016 -0.462891 -8.55664 -2.95996c-10.7324 -11.1846 -7.95215 -25.6514 -7.77832 -26.4746l0.113281 -0.477539l0.0634766 -0.438477c15.6631 -108.365 91.4541 -188.135 179.278 -188.135c58.416 0 101.795 19.1162 127.703 53.8428z
M298.968 518.967c-83.4268 -0.12207 -155.235 -72.2939 -175.994 -170.9c9.25391 1.37012 13.5312 1.13574 16.6738 1.00195h135.547c48.749 0 87.8887 11.4805 113.688 31.7676c20.6572 16.2441 31.2031 36.7627 31.2031 57.8604
c0.00195312 36.2158 -34.2939 80.1699 -121.117 80.2705zM161.89 659.726l180.585 138.3l42.5586 -55.5723l-180.585 -138.299z" />
    <glyph glyph-name="ecircumflex" unicode="&#xea;" horiz-adv-x="570" 
d="M303.401 718.1l-113.635 -76.4053l-39.9121 57.3262l153.255 106.455l5.2334 -3.62012l0.748047 -0.516602l147.868 -102.303l-39.9248 -57.3408zM304.969 518.965c-83.4268 -0.12207 -155.235 -72.2939 -175.994 -170.9
c9.25391 1.37012 13.5312 1.13574 16.6738 1.00195h135.547c48.749 0 87.8887 11.4805 113.688 31.7676c20.6562 16.2441 31.2031 36.7637 31.2031 57.8604c0.00195312 36.2158 -34.2939 80.1699 -121.117 80.2705zM453.835 142.566l56.1045 -41.8555l-20.9287 -28.0537
c-28.0938 -37.6611 -83.3828 -81.9873 -183.809 -81.9873c-69.3359 0 -133.774 32.3584 -181.138 90.1885c-32.2471 39.376 -54.1328 87.3877 -64.457 140.038l-3.47363 21.1807c-2.11426 15.9551 -3.13672 31.5469 -3.13672 47.7373
c0 78.4609 25.2803 152.701 71.583 209.016c22.9189 27.873 49.8701 49.9717 80.0664 65.5029c31.6465 16.2812 64.4336 24.4932 100.279 24.6348c56.375 -0.143555 103.756 -14.7959 138.93 -43.7041c33.4111 -27.46 52.2314 -65.4307 52.2314 -106.567
c0 -43.084 -21.417 -84.1689 -57.9326 -112.885c-39.3652 -30.957 -93.8252 -46.7432 -156.956 -46.7432c-0.220703 0 -135.407 -0.00292969 -139.121 0.0869141c-1.71094 0.00976562 -6.1543 -0.462891 -8.54883 -2.95996
c-10.7324 -11.1846 -7.95215 -25.6514 -7.77832 -26.4746l0.113281 -0.477539l0.0634766 -0.438477c15.6641 -108.364 91.4531 -188.134 179.278 -188.134c58.417 0 101.795 19.1152 127.703 53.8418z" />
    <glyph glyph-name="edieresis" unicode="&#xeb;" horiz-adv-x="570" 
d="M448.835 142.568l56.1055 -41.8564l-20.9287 -28.0537c-28.0947 -37.6602 -83.3818 -81.9873 -183.809 -81.9873c-69.3359 0 -133.774 32.3604 -181.137 90.1895c-32.248 39.375 -54.1338 87.3877 -64.458 140.037l-3.47363 21.1807
c-2.11426 15.9561 -3.13672 31.5479 -3.13672 47.7383c0 78.4619 25.2803 152.7 71.583 209.015c22.9189 27.873 49.8701 49.9717 80.0664 65.5029c31.6426 16.2793 64.4424 24.4932 100.269 24.6348c56.3945 -0.143555 103.763 -14.7939 138.939 -43.7041
c33.4111 -27.46 52.2314 -65.4307 52.2314 -106.566c0 -43.084 -21.417 -84.1709 -57.9336 -112.886c-39.3652 -30.9551 -93.8232 -46.7422 -156.955 -46.7422c-0.21582 0 -135.419 -0.00292969 -139.114 0.0869141
c-1.72559 0.00878906 -6.16016 -0.462891 -8.55566 -2.95996c-10.7324 -11.1846 -7.95215 -25.6514 -7.77832 -26.4746l0.113281 -0.477539l0.0634766 -0.438477c15.6631 -108.365 91.4541 -188.135 179.278 -188.135c58.416 0 101.795 19.1162 127.703 53.8428z
M299.967 518.967c-83.4268 -0.12207 -155.235 -72.2939 -175.994 -170.9c9.25391 1.37012 13.5312 1.13574 16.6738 1.00195h135.547c48.749 0 87.8887 11.4805 113.688 31.7676c20.6572 16.2441 31.2031 36.7627 31.2031 57.8604
c0.00195312 36.2158 -34.2939 80.1699 -121.117 80.2705zM210.935 663.716c-19.3301 0 -35 15.6699 -35 35v13.709c0 19.3281 15.6689 35 35 35c19.3271 0 35 -15.6709 35 -35v-13.709c0 -19.3311 -15.6719 -35 -35 -35zM390.935 663.716c-19.3311 0 -35 15.6699 -35 35
v13.709c0 19.3271 15.668 35 35 35c19.3271 0 35 -15.6709 35 -35v-13.709c0 -19.3311 -15.6719 -35 -35 -35z" />
    <glyph glyph-name="igrave" unicode="&#xec;" horiz-adv-x="295" 
d="M97.5527 -9.98047v598.98h70v-598.98h-70zM209.566 604.145l-180.587 138.3l42.5596 55.5723l180.586 -138.3z" />
    <glyph glyph-name="iacute" unicode="&#xed;" horiz-adv-x="292" 
d="M113.562 -9.98047v598.98h70v-598.98h-70zM68.54 604.146l-42.5605 55.5713l180.586 138.299l42.5576 -55.5713z" />
    <glyph glyph-name="icircumflex" unicode="&#xee;" horiz-adv-x="382" 
d="M181.618 717.449l-113.635 -76.4062l-39.9111 57.3271l153.255 106.455l5.23242 -3.62012l0.748047 -0.516602l147.868 -102.303l-39.9238 -57.3408zM146.618 -9.98145v598.98h70v-598.98h-70z" />
    <glyph glyph-name="idieresis" unicode="&#xef;" horiz-adv-x="333" 
d="M122.7 -9.98047v598.98h70v-598.98h-70zM67 747.424c19.3281 0 35 -15.6709 35 -35v-13.709c0 -19.332 -15.6729 -35 -35 -35c-19.3301 0 -35 15.6689 -35 35v13.709c0 19.3271 15.6689 35 35 35zM247 747.424c19.3281 0 35 -15.6709 35 -35v-13.709
c0 -19.3311 -15.6719 -35 -35 -35c-19.3301 0 -35 15.6689 -35 35v13.709c0 19.3271 15.668 35 35 35z" />
    <glyph glyph-name="eth" unicode="&#xf0;" horiz-adv-x="171" 
 />
    <glyph glyph-name="ntilde" unicode="&#xf1;" horiz-adv-x="580" 
d="M427.411 520.765c40.3262 -43.5527 62.5889 -101.342 62.5889 -162.293v-368.451h-70v368.451c0 89.2461 -66.2646 160.496 -146 160.496s-146 -71.25 -146 -160.496v-368.451h-70v368.451c0 60.9512 22.0879 118.551 62.3311 162.015
c40.7588 44.0215 95.4297 68.4805 153.669 68.4805s112.651 -24.1787 153.411 -68.2021zM209.757 697.116l-15.0498 -32.0996l-63.3779 29.7139l14.8525 31.6924c15.8037 33.7139 35.7266 55.3174 61.9287 61.4785c36.125 8.49316 64.5098 -15.0986 86.0254 -32.168
c12.2227 -9.69922 26.9326 -19.332 30.498 -19.875c1.64746 0.844727 10.248 6.69434 22.2188 32.2803l14.833 31.7012l63.4053 -29.666l-14.835 -31.7021c-18.5957 -39.7422 -40.4258 -63.9414 -69.6533 -70.8232c-5.34668 -1.25781 -10.6211 -1.83789 -15.7529 -1.83789
c-31.0205 0 -55.7969 20.4668 -74.2197 35.083c-8.72754 6.9248 -21.4492 16.2207 -26.6064 18.3594c-2.55371 -2.24316 -7.44141 -7.57812 -14.2666 -22.1367z" />
    <glyph glyph-name="ograve" unicode="&#xf2;" horiz-adv-x="646" 
d="M488.351 492.858c47.5293 -55.6543 73.4307 -129.047 73.4307 -206.768s-25.9922 -151.22 -73.5215 -206.874c-23.4473 -27.457 -50.9785 -49.1953 -81.7695 -64.4463c-32.2256 -15.9619 -66.6582 -24.1016 -102.099 -24.1016
c-35.4414 0 -69.873 8.13965 -102.099 24.1025c-30.793 15.252 -58.3252 36.9883 -81.7705 64.4453c-47.5303 55.6543 -73.5225 129.15 -73.5225 206.873c0 77.7217 25.9922 151.22 73.5215 206.876c23.4473 27.4561 50.9775 49.1943 81.7705 64.4463
c32.2246 15.9609 66.6572 24.1016 102.099 24.1016c35.4424 0 69.874 -8.13965 102.099 -24.1016c30.793 -15.252 58.3838 -37.0596 81.8613 -64.5537zM304.392 60.6699c101.821 0 187.391 99.624 187.391 225.42s-85.5703 225.423 -187.391 225.423
c-101.821 0 -187.392 -99.6279 -187.392 -225.423c0 -125.794 85.5703 -225.42 187.392 -225.42zM198.345 749.675l37.0312 48.3555l180.583 -138.299l-42.5576 -55.5713l-180.584 138.298z" />
    <glyph glyph-name="oacute" unicode="&#xf3;" horiz-adv-x="646" 
d="M488.351 492.858c47.5293 -55.6543 73.4307 -129.047 73.4307 -206.768s-25.9922 -151.22 -73.5215 -206.874c-23.4473 -27.457 -50.9785 -49.1953 -81.7695 -64.4463c-32.2256 -15.9619 -66.6582 -24.1016 -102.099 -24.1016
c-35.4414 0 -69.873 8.13965 -102.099 24.1025c-30.793 15.252 -58.3252 36.9883 -81.7705 64.4453c-47.5303 55.6543 -73.5225 129.15 -73.5225 206.873c0 77.7217 25.9922 151.22 73.5215 206.876c23.4473 27.4561 50.9775 49.1943 81.7705 64.4463
c32.2246 15.9609 66.6572 24.1016 102.099 24.1016c35.4424 0 69.874 -8.13965 102.099 -24.1016c30.793 -15.252 58.3838 -37.0596 81.8613 -64.5537zM304.392 60.6699c101.821 0 187.391 99.624 187.391 225.42s-85.5703 225.423 -187.391 225.423
c-101.821 0 -187.392 -99.6279 -187.392 -225.423c0 -125.794 85.5703 -225.42 187.392 -225.42zM182.968 659.724l180.586 138.299l42.5586 -55.5713l-180.584 -138.299z" />
    <glyph glyph-name="ocircumflex" unicode="&#xf4;" horiz-adv-x="656" 
d="M494.351 492.858c47.5293 -55.6543 73.4297 -129.047 73.4297 -206.768c0 -77.7217 -25.9941 -151.218 -73.5215 -206.874c-23.4453 -27.4561 -50.9785 -49.1953 -81.7695 -64.4463c-32.2256 -15.9619 -66.6582 -24.1016 -102.099 -24.1016
c-35.4414 0 -69.873 8.13965 -102.099 24.1025c-30.793 15.252 -58.3252 36.9883 -81.7705 64.4453c-47.5293 55.6543 -73.5215 129.149 -73.5215 206.873c0 77.7217 25.9922 151.22 73.5215 206.876c23.4473 27.4561 50.9775 49.1943 81.7705 64.4463
c32.2246 15.9609 66.6572 24.1016 102.099 24.1016c35.4424 0 69.875 -8.14062 102.099 -24.1016c30.793 -15.252 58.3838 -37.0596 81.8613 -64.5537zM310.391 60.6699c101.821 0 187.391 99.624 187.391 225.42s-85.5703 225.423 -187.391 225.423
c-101.821 0 -187.392 -99.6279 -187.392 -225.423c0 -125.794 85.5703 -225.42 187.392 -225.42zM310.389 718.098l-113.635 -76.4053l-39.9111 57.3271l153.255 106.455l5.23242 -3.62012c0.822266 -0.569336 -0.0751953 0.0517578 0.748047 -0.517578l147.868 -102.303
l-39.9238 -57.3408z" />
    <glyph glyph-name="otilde" unicode="&#xf5;" horiz-adv-x="646" 
d="M488.351 492.858c47.5293 -55.6543 73.4307 -129.047 73.4307 -206.768s-25.9922 -151.22 -73.5215 -206.874c-23.4473 -27.457 -50.9785 -49.1953 -81.7695 -64.4463c-32.2256 -15.9619 -66.6582 -24.1016 -102.099 -24.1016
c-35.4414 0 -69.873 8.13965 -102.099 24.1025c-30.793 15.252 -58.3252 36.9883 -81.7705 64.4453c-47.5303 55.6543 -73.5225 129.15 -73.5225 206.873c0 77.7217 25.9922 151.22 73.5215 206.876c23.4473 27.4561 50.9775 49.1943 81.7705 64.4463
c32.2246 15.9609 66.6572 24.1016 102.099 24.1016c35.4424 0 69.874 -8.13965 102.099 -24.1016c30.793 -15.252 58.3838 -37.0596 81.8613 -64.5537zM304.392 60.6699c101.821 0 187.391 99.624 187.391 225.42s-85.5703 225.423 -187.391 225.423
c-101.821 0 -187.392 -99.6279 -187.392 -225.423c0 -125.794 85.5703 -225.42 187.392 -225.42zM235.746 696.707l-14.8574 -31.6895l-63.3809 29.7129l14.8555 31.6914c15.8047 33.7139 35.7256 55.3154 61.9297 61.4775c36.125 8.49316 64.5098 -15.0986 86.0244 -32.168
c12.2217 -9.69922 26.9336 -19.332 30.499 -19.875c1.64648 0.844727 10.248 6.69531 22.2178 32.2793l14.833 31.7031l63.4043 -29.6631l-14.834 -31.7031c-18.5957 -39.7432 -40.4268 -63.9414 -69.6543 -70.8232c-5.34668 -1.25781 -10.6211 -1.83789 -15.7529 -1.83789
c-31.0195 0 -55.7959 20.4668 -74.2188 35.083c-8.72754 6.9248 -21.4492 16.2207 -26.6064 18.3594c-2.55371 -2.24316 -7.63281 -7.98633 -14.459 -22.5469z" />
    <glyph glyph-name="odieresis" unicode="&#xf6;" horiz-adv-x="646" 
d="M488.351 492.858c47.5293 -55.6543 73.4307 -129.047 73.4307 -206.768s-25.9922 -151.22 -73.5215 -206.874c-23.4473 -27.457 -50.9785 -49.1953 -81.7695 -64.4463c-32.2256 -15.9619 -66.6582 -24.1016 -102.099 -24.1016
c-35.4414 0 -69.873 8.13965 -102.099 24.1025c-30.793 15.252 -58.3252 36.9883 -81.7705 64.4453c-47.5303 55.6543 -73.5225 129.15 -73.5225 206.873c0 77.7217 25.9922 151.22 73.5215 206.876c23.4473 27.4561 50.9775 49.1943 81.7705 64.4463
c32.2246 15.9609 66.6572 24.1016 102.099 24.1016c35.4424 0 69.874 -8.13965 102.099 -24.1016c30.793 -15.252 58.3838 -37.0596 81.8613 -64.5537zM304.392 60.6699c101.821 0 187.391 99.624 187.391 225.42s-85.5703 225.423 -187.391 225.423
c-101.821 0 -187.392 -99.6279 -187.392 -225.423c0 -125.794 85.5703 -225.42 187.392 -225.42zM214.392 663.715c-19.3301 0 -35 15.6699 -35 35v13.709c0 19.3281 15.6689 35 35 35c19.3271 0 35 -15.6709 35 -35v-13.709c0 -19.3311 -15.6709 -35 -35 -35z
M394.392 663.715c-19.3311 0 -35 15.6699 -35 35v13.709c0 19.3271 15.668 35 35 35c19.3271 0 35 -15.6709 35 -35v-13.709c0 -19.3311 -15.6719 -35 -35 -35z" />
    <glyph glyph-name="divide" unicode="&#xf7;" horiz-adv-x="638" 
d="M296.536 106.356c32.5781 0 55.0957 -25.1982 55.0957 -58.1533c0 -32.082 -21.707 -58.1533 -55.8623 -58.1533c-32.7217 0 -55.0967 25.9961 -55.0967 58.1533c0 33.1826 23.4395 58.1533 55.8633 58.1533zM49 267.876v68.9678h501.832v-68.9678h-501.832z
M295.77 489.849c-32.7217 0 -55.0977 25.998 -55.0967 58.1553c0 33.1816 23.4395 58.1533 55.8633 58.1533c32.5781 0 55.0957 -25.2002 55.0957 -58.1543c0 -32.084 -21.707 -58.1543 -55.8623 -58.1543z" />
    <glyph glyph-name="oslash" unicode="&#xf8;" horiz-adv-x="651" 
d="M576.394 589l-78.0156 -104.732c43.7949 -55.8984 66.4014 -124.43 66.4014 -198.175c0 -77.7207 -25.9922 -151.22 -73.5205 -206.874c-23.4473 -27.457 -50.9785 -49.1953 -81.7705 -64.4453c-32.2256 -15.9629 -66.6582 -24.1025 -102.1 -24.1025
s-69.874 8.13965 -102.099 24.1025c-13.3486 6.61133 -28.1318 15.9287 -38.7949 23.9336l-36.2637 -48.6875h-87.2783l73.1768 98.2432c-43.6533 55.8994 -66.1309 124.237 -66.1309 197.827c0 77.7217 25.9922 151.22 73.5215 206.877
c23.4473 27.4561 50.9795 49.1943 81.7705 64.4463c32.2256 15.9619 66.6572 24.1016 102.1 24.1016s69.873 -8.13965 102.1 -24.1016c13.2422 -6.55957 27.7178 -15.6582 38.4512 -23.6816l41.167 55.2686h87.2852zM119.998 286.092
c0 -52.6299 15.3916 -101.104 39.9902 -138.945l246.117 330.421c-30.0469 22.3154 -62.5557 33.9473 -98.7158 33.9473c-101.821 0 -187.392 -99.627 -187.392 -225.423zM494.78 286.091c0 52.8086 -15.5 101.442 -40.2363 139.323l-246.212 -330.543
c30.207 -22.5254 62.7529 -34.2002 99.0576 -34.2002c101.82 0 187.391 99.624 187.391 225.42z" />
    <glyph glyph-name="ugrave" unicode="&#xf9;" horiz-adv-x="576" 
d="M419 588.967l70 -0.000976562v-368.451c0 -60.9521 -22.0869 -118.55 -62.3301 -162.016c-40.7598 -44.0205 -95.4307 -68.4805 -153.67 -68.4805c-58.2383 0 -112.911 24.458 -153.669 68.4814c-40.2432 43.4658 -62.3311 101.062 -62.3311 162.016v368.451h70v-368.451
c0 -89.2461 66.2646 -160.497 146 -160.497s146 71.251 146 160.497v368.451zM166.956 749.671l37.0312 48.3555l180.584 -138.299l-42.5586 -55.5713l-180.584 138.298z" />
    <glyph glyph-name="uacute" unicode="&#xfa;" horiz-adv-x="576" 
d="M0 0l169.358 665.806l172.647 132.219l42.5586 -55.5713l-180.586 -138.3l-42.5586 55.5723s145.227 545.805 -161.42 -659.726zM419 588.968l70 -0.000976562v-368.451c0 -60.9521 -22.0869 -118.55 -62.3301 -162.016
c-40.7598 -44.0205 -95.4307 -68.4805 -153.67 -68.4805c-58.2383 0 -112.911 24.458 -153.669 68.4814c-40.2432 43.4658 -62.3311 101.062 -62.3311 162.016v368.451h70v-368.451c0 -89.2461 66.2646 -160.497 146 -160.497s146 71.251 146 160.497v368.451z" />
    <glyph glyph-name="ucircumflex" unicode="&#xfb;" horiz-adv-x="582" 
d="M423 588.967h70v-368.451c0 -60.9521 -22.0869 -118.55 -62.3301 -162.016c-40.7598 -44.0205 -95.4307 -68.4805 -153.67 -68.4805c-58.2383 0 -112.911 24.457 -153.669 68.4805c-40.2432 43.4658 -62.3311 101.062 -62.3311 162.016v368.451h70v-368.451
c0 -89.2461 66.2646 -160.497 146 -160.497s146 71.251 146 160.497v368.451zM276.999 717.449l-113.635 -76.4053l-39.9111 57.3271l153.255 106.455l5.23242 -3.62012c0.822266 -0.569336 -0.0751953 0.0517578 0.748047 -0.517578l147.868 -102.303l-39.9238 -57.3408z
" />
    <glyph glyph-name="udieresis" unicode="&#xfc;" horiz-adv-x="576" 
d="M419 588.967l70 -0.000976562v-368.451c0 -60.9521 -22.0869 -118.55 -62.3301 -162.016c-40.7598 -44.0205 -95.4307 -68.4805 -153.67 -68.4805c-58.2383 0 -112.911 24.458 -153.669 68.4814c-40.2432 43.4658 -62.3311 101.062 -62.3311 162.016v368.451h70v-368.451
c0 -89.2461 66.2646 -160.497 146 -160.497s146 71.251 146 160.497v368.451zM183 663.714c-19.3301 0 -35 15.6699 -35 35v13.709c0 19.3271 15.668 35 35 35c19.3281 0 35 -15.6709 35 -35v-13.709c0 -19.3311 -15.6719 -35 -35 -35zM363 663.714
c-19.3301 0 -35 15.6699 -35 35v13.709c0 19.3271 15.668 35 35 35c19.3281 0 35 -15.6709 35 -35v-13.709c0 -19.3311 -15.6719 -35 -35 -35z" />
    <glyph glyph-name="OE" unicode="&#x152;" horiz-adv-x="1073" 
d="M966.656 -9.97656l-487.046 -0.666992v19.9951c-33.042 -13.3564 -67.2236 -20.0176 -102.646 -20.0176c-45.1875 0 -89.0322 11.0918 -130.037 32.8232c-39.1113 20.7285 -74.0322 50.2314 -103.77 87.4941c-60.2354 75.4775 -93.1562 175.098 -93.1562 280.519
s32.9209 205.041 93.1582 280.518c29.7383 37.2617 64.6582 66.7637 103.77 87.4941c41.0049 21.7314 84.8516 32.8242 130.036 32.8242c35.3086 0 71.3105 -7.35059 102.646 -20.0166v22.4893l486.981 0.271484l0.0361328 -70l-417.02 -0.230469v-279.231
c10.292 2.44824 20.1543 3.48633 31.4014 3.48633h385.6v-70h-385.599c-14.7295 0 -22.8438 -3.5127 -26.4365 -7.43555c-3.69238 -4.0332 -4.88379 -11.7236 -4.9668 -14.2334v-296.652l416.952 0.570312zM376.963 59.332c35.8887 0 70.9521 9.74219 102.646 27.6299
v606.421c-32.9668 18.6055 -66.8398 27.626 -102.646 27.626c-139.616 0 -256.961 -146.335 -256.961 -330.838s117.345 -330.839 256.961 -330.839z" />
    <glyph glyph-name="oe" unicode="&#x153;" horiz-adv-x="1039" 
d="M305.391 60.6699c101.82 0 187.391 99.624 187.391 225.42s-85.5693 225.423 -187.391 225.423s-187.392 -99.6279 -187.392 -225.423c0 -125.794 85.5703 -225.42 187.392 -225.42zM745.881 518.967c-83.4248 -0.12207 -155.237 -72.293 -175.994 -170.898
c9.25293 1.37012 13.5312 1.13574 16.6738 1.00195h135.549c48.751 0 87.8887 11.4785 113.688 31.7666c20.6572 16.2441 31.2031 36.7607 31.2031 57.8604c0 36.2158 -34.2959 80.1689 -121.119 80.2695zM894.747 142.569l56.1074 -41.8584l-20.9287 -28.0527
c-28.0938 -37.6592 -83.3809 -81.9873 -183.809 -81.9873c-69.335 0 -133.774 32.3584 -181.136 90.1885c-14.2812 17.4375 -26.7275 37.1104 -36.6895 57.1895c-11.2139 -22.1113 -23.6221 -40.7891 -39.0312 -58.832
c-23.4473 -27.457 -50.9785 -49.1953 -81.7705 -64.4463c-32.2256 -15.9629 -66.6582 -24.1025 -102.1 -24.1025s-69.874 8.13965 -102.099 24.1025c-30.793 15.252 -58.3232 36.9893 -81.7705 64.4463c-47.5283 55.6553 -73.5205 129.152 -73.5205 206.874
c0 77.7227 25.9922 151.219 73.5205 206.878c23.4473 27.4561 50.9795 49.1953 81.7705 64.4463c32.2256 15.9619 66.6572 24.1016 102.1 24.1016s69.874 -8.14062 102.099 -24.1016c30.7939 -15.252 58.3223 -36.9893 81.7715 -64.4463
c14.4541 -16.9268 27.2393 -36.2041 37.3252 -55.4727c11.1719 23.2275 23.4365 42.5166 38.9102 61.335c22.918 27.8711 49.8691 49.9717 80.0654 65.5029c31.6416 16.2793 64.4414 24.4932 100.268 24.6348c56.3965 -0.143555 103.764 -14.7949 138.939 -43.7041
c33.4121 -27.457 52.2314 -65.4307 52.2314 -106.566c0 -43.0859 -21.4189 -84.1719 -57.9346 -112.886c-39.3652 -30.9551 -93.8232 -46.7422 -156.955 -46.7422c-0.210938 0 -135.429 -0.00195312 -139.105 0.0869141
c-1.74121 0.00878906 -6.16602 -0.461914 -8.56348 -2.95996c-10.7324 -11.1855 -7.95117 -25.6523 -7.77832 -26.4746l0.113281 -0.477539l0.0625 -0.438477c15.665 -108.365 91.4521 -188.135 179.277 -188.135c58.417 0 101.796 19.1172 127.703 53.8438z" />
    <glyph glyph-name="mu" unicode="&#x3bc;" horiz-adv-x="589" 
d="M426 794l70 -0.000976562v-360.451c0 -60.9531 -22.0869 -118.55 -62.3301 -162.016c-40.7607 -44.0234 -95.4199 -68.4805 -153.681 -68.4805c-0.163086 0 -121.813 0.170898 -122.931 0.195312c-1.71094 0.0117188 -10.7676 -0.706055 -15.6445 -5.34961
c-3.9707 -3.78125 -7.41406 -12.0166 -7.41406 -26.5889v-181.29h-70v803.98h70v-523.518c12.9512 3.06738 21.9404 2.90234 26.3164 2.69336c0 0 111.911 -0.113281 119.712 -0.12207c79.7051 0 145.972 71.249 145.972 160.496v360.451z" />
    <glyph glyph-name="perthousand" unicode="&#x2030;" horiz-adv-x="967" 
d="M503.201 794.007l77.9834 -0.00878906l-464.208 -803.979h-78.0957zM176.734 497.797c-75.8281 0 -136.736 64.6025 -136.735 143.104c0 78.502 60.9053 143.104 136.735 143.104c75.8291 0 136.737 -64.6006 136.737 -143.104
c0 -78.502 -60.9053 -143.104 -136.737 -143.104zM176.734 716.41c-37.4502 0 -69.1406 -33.2217 -69.1406 -75.5098c0 -42.2842 31.6914 -75.5078 69.1406 -75.5078c37.4531 0 69.1436 33.2236 69.1436 75.5078c0 42.2861 -31.6924 75.5098 -69.1436 75.5098z
M449.891 276.529c75.8291 0 136.737 -64.6045 136.737 -143.104c0 -78.501 -60.9062 -143.104 -136.737 -143.104c-75.8281 0 -136.736 64.6035 -136.736 143.104s60.9062 143.104 136.736 143.104zM449.891 57.917c37.4521 0 69.1426 33.2217 69.1426 75.5088
c0 42.2861 -31.6924 75.5088 -69.1426 75.5088s-69.1406 -33.2236 -69.1406 -75.5088c0 -42.2861 31.6914 -75.5088 69.1406 -75.5088zM744.351 276.529c75.8291 0 136.737 -64.6045 136.737 -143.104c0 -78.501 -60.9053 -143.104 -136.737 -143.104
c-75.8271 0 -136.735 64.6035 -136.735 143.104s60.9053 143.104 136.735 143.104zM744.351 57.917c37.4512 0 69.1406 33.2236 69.1436 75.5088c0 42.2861 -31.6934 75.5088 -69.1436 75.5088c-37.4492 0 -69.1396 -33.2227 -69.1396 -75.5088
s31.6914 -75.5088 69.1396 -75.5088z" />
    <glyph glyph-name="Euro" unicode="&#x20ac;" horiz-adv-x="805" 
d="M654.322 187.594l18.6748 30.3379l59.9268 -36.8828l-18.4424 -29.9639c-29.5449 -48 -68.1875 -87.9551 -112.019 -115.538c-46.0117 -28.9541 -98.002 -44.3311 -150.354 -44.3311c-45.3447 0 -89.3467 11.1025 -130.502 32.8535
c-39.2598 20.751 -74.3154 50.2881 -104.173 87.5986c-41.5928 51.9775 -69.958 115.202 -83.9639 183.971h-89.4678v70.3691h80.6064c-0.522461 9.97559 -0.714844 17.4766 -0.714844 26.5732c0 5.08398 0.106445 10.6729 0.24707 15.375h-80.1387v70.3691h87.3447
c13.2939 74.4951 42.2363 140.366 86.0879 195.17c29.8564 37.3086 64.9121 66.8477 104.173 87.5986c41.1543 21.752 85.1582 32.8525 130.502 32.8525c52.3506 0 104.343 -15.3789 150.354 -44.3311c43.8291 -27.5801 82.4736 -67.5352 112.02 -115.538l18.4434 -29.9629
l-59.9268 -36.8857l-18.4443 29.9629c-49.8809 81.043 -123.749 126.388 -202.447 126.388c-118.052 0 -219.453 -103.952 -249.049 -245.255h256.317v-70.3682h-264.833c-0.210938 -5.97656 -0.280273 -10.0869 -0.280273 -15.375
c0 -8.84375 0.336914 -18.4365 0.834961 -26.5732h264.276v-70.3691h-253.799c33.1836 -137.604 132.19 -234.056 246.532 -234.056c78.7031 0 152.332 44.9658 202.215 126.011z" />
    </font>
</defs>
</svg>
